<svg width="38" height="22" viewBox="0 0 38 22" fill="none" xmlns="http://www.w3.org/2000/svg">
<g id="Group 51">
<path id="Czechia_00000059286773339504545270000017621196849903400356_" d="M12.4397 0C12.4149 0 12.3936 0.0143498 12.3794 0.0502247C12.3581 0.107625 12.3013 0.12915 12.2871 0.168613C12.2694 0.218838 12.3262 0.347987 12.2445 0.398212C12.1771 0.437675 12.1594 0.53095 12.1594 0.591937C12.1594 0.6601 12.3084 0.728262 12.3829 0.6888C12.4361 0.6601 12.571 0.574 12.5674 0.692388C12.5639 0.76055 12.3829 0.76055 12.4432 0.814362C12.4823 0.84665 12.4681 0.84665 12.4681 0.886112C12.4681 0.936337 12.6242 0.954274 12.6987 0.986562C12.7661 1.01526 12.8193 1.04037 12.9009 1.02602C12.9896 1.01167 12.9542 1.13006 12.9045 1.1767C12.8548 1.22334 12.9506 1.40271 12.8193 1.39912C12.759 1.39554 12.72 1.38477 12.6703 1.44217C12.6313 1.48522 12.5284 1.47087 12.461 1.49957C12.3794 1.53545 12.3226 1.47446 12.2623 1.43859C12.1736 1.38477 12.1239 1.53186 12.06 1.58567C12.0175 1.62514 12.0139 1.68971 11.9465 1.722C11.872 1.75429 11.8152 1.81527 11.723 1.81527C11.6485 1.81527 11.5704 1.8655 11.5065 1.90855C11.4427 1.95877 11.3575 2.01976 11.2795 2.01976C11.1801 2.01976 11.1553 2.11304 11.0772 2.13815C11.0098 2.15967 10.9247 2.1812 10.875 2.18479C10.8324 2.18837 10.7508 2.09151 10.6869 2.08075C10.6089 2.06999 10.4918 2.10945 10.4705 2.18479C10.4421 2.27447 10.3783 2.3534 10.2789 2.30676C10.2257 2.28165 10.1157 2.28524 10.1654 2.36775C10.208 2.43591 10.0306 2.45026 10.1122 2.52919C10.1725 2.59017 10.2009 2.70497 10.1015 2.74085C10.0518 2.75879 9.94894 2.64399 9.96314 2.74444C9.97733 2.84847 9.88153 2.85565 9.79992 2.85924C9.70767 2.86282 9.64026 2.8126 9.55866 2.79466C9.45931 2.77314 9.35996 2.84847 9.27836 2.82695C9.22159 2.8126 9.16127 2.76955 9.15063 2.85206C9.13998 2.94534 8.98032 2.93457 8.94129 2.88076C8.89162 2.80901 8.81711 2.80184 8.74615 2.80184C8.67873 2.80184 8.68228 2.8987 8.64325 2.93099C8.59003 2.97762 8.45875 2.99197 8.3807 2.94534C8.2849 2.88794 8.22458 2.99556 8.14297 3.00274C8.07201 3.00632 8.09685 3.05655 8.12523 3.10319C8.15717 3.15341 8.24232 3.28256 8.15007 3.33637C8.08975 3.36866 7.95493 3.45476 8.02944 3.51575C8.08621 3.5588 8.04718 3.62337 7.97622 3.63055C7.90171 3.64131 7.88751 3.74535 7.81655 3.79199C7.77043 3.82069 7.75269 3.96418 7.67463 3.88885C7.62141 3.83503 7.54335 3.82068 7.48303 3.78481C7.41207 3.74535 7.39433 3.66284 7.3624 3.59826C7.33756 3.54804 7.22402 3.46911 7.21338 3.51216C7.19209 3.5875 7.2737 3.67001 7.20274 3.74535C7.15306 3.79916 7.07146 3.84221 7.01824 3.86732C6.95792 3.89244 6.94018 3.93549 6.95437 3.99289C6.96501 4.04311 6.96856 4.10051 6.88696 4.1041C6.81245 4.10768 6.73084 4.13997 6.71665 4.03952C6.70601 3.95701 6.58182 3.93548 6.56053 3.9606C6.53215 3.99288 6.46474 4.06464 6.46474 4.15432C6.46474 4.20455 6.36539 4.2189 6.37249 4.29782C6.37958 4.3911 6.33346 4.48078 6.30152 4.55971C6.28024 4.60993 6.23411 4.62428 6.22702 4.68886C6.21282 4.78572 6.0709 4.69245 6.01058 4.68168C5.95736 4.67092 5.92543 4.6781 5.8864 4.6207C5.83673 4.54536 5.75512 4.69603 5.709 4.73908C5.66997 4.77137 5.57772 4.74626 5.51385 4.75702C5.4287 4.76778 5.38257 4.61352 5.30806 4.69245C5.2442 4.75702 5.29742 4.86106 5.27258 4.91846C5.23356 4.99738 5.24775 5.07631 5.2513 5.15882C5.25484 5.27003 5.10937 5.2521 5.07744 5.32743C5.04906 5.3956 5.01712 5.4817 4.93552 5.4817C4.85391 5.4817 4.8752 5.49605 4.79714 5.4817C4.71908 5.46735 4.65522 5.42788 4.5949 5.38125C4.52394 5.32743 4.44234 5.29873 4.36783 5.25568C4.28977 5.20905 4.22235 5.10501 4.13365 5.1086C4.06269 5.11218 4.06979 5.24851 4.05205 5.29873C4.0414 5.33461 4.01302 5.15165 3.93141 5.166C3.84626 5.18393 3.7682 5.23416 3.6866 5.27003C3.61209 5.30232 3.60499 5.3956 3.52693 5.42071C3.45242 5.44582 3.48436 5.60726 3.42759 5.57138C3.37082 5.53551 3.31405 5.3956 3.25728 5.42071C3.17922 5.453 3.10116 5.47452 3.02665 5.41353C2.95924 5.35255 2.91666 5.53551 2.82796 5.49246C2.7499 5.45658 2.70733 5.54627 2.61863 5.54268C2.53347 5.54268 2.41639 5.50681 2.35962 5.5965C2.31349 5.67183 2.21769 5.72923 2.21415 5.82251C2.2106 5.8835 2.27801 6.04852 2.16802 6.00906C2.08641 5.98036 1.96578 5.95166 1.94804 6.05928C1.93385 6.14897 1.86289 6.20278 1.77418 6.18126C1.66774 6.15615 1.69613 6.29965 1.71032 6.36781C1.73161 6.47185 1.57904 6.46467 1.52227 6.51848C1.46195 6.57229 1.41228 6.66198 1.40873 6.73373C1.40518 6.79472 1.49389 6.9454 1.37325 6.888C1.281 6.84495 1.28455 7.00279 1.30229 7.05661C1.32358 7.11042 1.19585 7.16782 1.281 7.22163C1.36616 7.27545 1.30229 7.38307 1.22778 7.42253C1.17456 7.44764 1.05747 7.49787 1.06102 7.41895C1.06457 7.33285 0.968772 7.27903 0.99006 7.23957C1.00425 7.21446 1.1036 7.21087 1.04683 7.17141C0.965223 7.11042 1.12134 7.02432 1.0149 6.96333C0.940387 6.92387 0.830397 6.88441 0.809108 6.8019C0.784272 6.70503 0.965223 6.84494 0.940387 6.72297C0.919098 6.62611 0.819752 6.59023 0.727503 6.59382C0.635253 6.59741 0.560743 6.56153 0.589128 6.4575C0.613964 6.36781 0.582032 6.27095 0.521715 6.19202C0.468493 6.12027 0.351407 6.13462 0.280445 6.15973C0.19884 6.18843 0.120782 6.12745 0.0604651 6.13821C-0.0175925 6.15615 0.120782 6.20278 0.156263 6.23148C0.220128 6.28171 0.0959457 6.35346 0.170455 6.41445C0.220128 6.45391 0.280446 6.53642 0.184648 6.57229C0.127878 6.59382 0.0285324 6.61535 0.0249843 6.69068C-0.0211406 6.79831 -0.00340024 6.73373 0.0782054 6.82701C0.117234 6.85571 0.205936 6.94181 0.273349 6.94539C0.362051 6.95257 0.365599 7.05661 0.415272 7.11401C0.464945 7.17141 0.503974 7.24674 0.557195 7.30773C0.599772 7.35437 0.606868 7.42971 0.624609 7.49069C0.645897 7.55527 0.546551 7.58756 0.521715 7.64854C0.482686 7.73464 0.500426 7.82074 0.500426 7.89967C0.500426 7.97859 0.560743 8.05752 0.652993 8.07187C0.69557 8.07905 0.709762 8.15797 0.773628 8.17232C0.841041 8.18667 0.954579 8.27636 0.943935 8.31582C0.936839 8.34093 0.802012 8.44497 0.883618 8.48443C0.965223 8.5239 1.08586 8.45214 1.14972 8.52389C1.20294 8.58488 1.1994 8.69968 1.29874 8.71403C1.39809 8.72838 1.41228 8.83601 1.49389 8.88264C1.56485 8.92211 1.63226 8.96157 1.71032 8.98309C1.76709 9.00103 1.85224 9.01897 1.79192 9.09431C1.74225 9.15888 1.85934 9.16247 1.89482 9.12301C1.94804 9.06202 1.99416 9.16247 2.03674 9.18399C2.10061 9.21987 2.1964 9.28444 2.11835 9.36337C2.06158 9.42077 1.93385 9.50687 2.05803 9.58221C2.12899 9.62526 2.19641 9.69342 2.28511 9.68624C2.37381 9.67907 2.46251 9.75082 2.43058 9.84768C2.40574 9.92302 2.37026 10.0127 2.30285 10.0593C2.21769 10.1132 2.28156 10.2674 2.18221 10.2854C2.08287 10.3033 2.16092 10.4755 2.08287 10.4432C2.00126 10.4109 2.00481 10.5401 2.00126 10.5903C1.99771 10.6549 1.94094 10.7553 1.93385 10.8486C1.92675 10.9347 1.80612 10.9598 1.7458 11.0172C1.68903 11.071 1.55066 11.0746 1.5542 11.1464C1.55775 11.2253 1.50808 11.3186 1.61097 11.3688C1.68193 11.4047 1.67839 11.5051 1.72451 11.5661C1.76709 11.6235 1.81676 11.663 1.88772 11.6773C1.97288 11.6917 2.00126 11.81 2.09706 11.8029C2.15738 11.7993 2.19286 11.7993 2.21769 11.8746C2.24963 11.9643 2.2106 12.0253 2.19995 12.1078C2.18931 12.176 2.18576 12.2621 2.2106 12.2979C2.24253 12.341 2.19995 12.463 2.28511 12.4056C2.388 12.3338 2.43413 12.4522 2.41639 12.5347C2.3951 12.6244 2.54412 12.689 2.48025 12.7679C2.41993 12.8432 2.4909 12.9078 2.50509 12.976C2.52283 13.0693 2.55831 13.1769 2.66475 13.2092C2.73216 13.2307 2.78538 13.1661 2.82796 13.1733C2.89183 13.1805 2.89538 13.3527 2.85635 13.4137C2.81022 13.4854 2.91666 13.5751 2.8528 13.6181C2.79248 13.6576 2.81022 13.6935 2.85989 13.7365C2.92021 13.7868 2.91666 13.9051 2.92376 13.9948C2.93086 14.0989 3.05504 14.1312 3.14019 14.1383C3.23244 14.1455 3.25018 14.2567 3.33179 14.2926C3.3992 14.3249 3.47371 14.3751 3.48081 14.4576C3.4879 14.533 3.42759 14.6298 3.52693 14.6585C3.63692 14.6872 3.52338 14.8092 3.61918 14.8487C3.70788 14.8845 3.79659 14.9096 3.89238 14.9061C3.97399 14.9061 4.06269 14.924 4.12656 14.9814C4.20107 15.0496 4.16559 14.9348 4.16559 14.8845C4.16559 14.7913 4.31815 14.8845 4.38557 14.8953C4.47072 14.9096 4.55942 14.8881 4.62329 14.9635C4.67651 15.0244 4.74392 15.0531 4.79005 15.1213C4.82907 15.1751 4.86456 15.254 4.95681 15.2433C5.03131 15.2361 5.01712 15.3653 4.99938 15.4047C4.971 15.4657 4.97455 15.6164 5.0526 15.6056C5.1555 15.5913 5.13421 15.6917 5.18033 15.7419C5.22291 15.785 5.30097 15.7491 5.32226 15.828C5.33645 15.8926 5.31516 15.9572 5.41096 15.9751C5.48547 15.9895 5.41806 16.115 5.44289 16.1509C5.48192 16.2083 5.59546 16.2478 5.64513 16.3231C5.68416 16.3769 5.75512 16.402 5.7906 16.4451C5.84382 16.5097 5.74802 16.6209 5.78705 16.6998C5.82963 16.7895 5.93253 16.8182 6.00349 16.8863C6.0709 16.9509 6.16315 16.9617 6.2554 16.9402C6.32636 16.9222 6.42926 16.8864 6.47893 16.9725C6.51441 17.0334 6.59247 17.055 6.64569 17.1016C6.69536 17.1482 6.75923 17.1841 6.78051 17.2559C6.8089 17.3384 6.94018 17.3599 6.93308 17.4352C6.92599 17.5536 7.0892 17.4783 7.04307 17.5967C7.01824 17.6613 7.10694 17.7402 7.06436 17.8227C7.03598 17.8765 7.13532 17.9303 7.07146 18.0021C6.99695 18.081 7.11758 18.142 7.16371 18.1886C7.21693 18.2424 7.28434 18.2962 7.3624 18.3249C7.41562 18.3429 7.4582 18.3931 7.50077 18.4326C7.54335 18.472 7.65689 18.5868 7.63915 18.4613C7.6285 18.3752 7.6285 18.2927 7.7314 18.2711C7.79526 18.2568 7.83074 18.264 7.88397 18.2998C7.94073 18.3393 8.02944 18.2855 8.0933 18.2783C8.1891 18.2711 8.12878 18.4182 8.19265 18.4792C8.25651 18.5438 8.39134 18.3823 8.35231 18.4864C8.32038 18.5832 8.38779 18.6263 8.40553 18.7088C8.41972 18.7841 8.43392 18.8954 8.50133 18.9348C8.57584 18.9779 8.5581 19.0711 8.64325 19.0998C8.72486 19.1285 8.8242 19.1285 8.89871 19.0891C8.93065 19.0711 8.97322 19.0173 8.99806 19.0819C9.02999 19.1608 9.05483 19.2397 9.08676 19.3151C9.11515 19.3904 9.10805 19.5124 9.20385 19.516C9.289 19.5232 9.289 19.5841 9.29965 19.6451C9.31384 19.7205 9.40964 19.7671 9.39899 19.846C9.39544 19.8891 9.33868 19.9214 9.33158 19.9573C9.31739 20.0326 9.46995 20.0433 9.54092 20.0433C9.62962 20.0469 9.72187 20.0433 9.78928 20.1115C9.8425 20.1689 9.92411 20.1976 9.97023 20.2694C10.0164 20.3411 10.0518 20.4487 10.1193 20.4738C10.1973 20.5025 10.208 20.5635 10.3073 20.5779C10.3818 20.5886 10.5095 20.5635 10.5273 20.6783C10.5344 20.7321 10.6053 20.7393 10.6124 20.7752C10.6302 20.8541 10.7047 20.8828 10.7792 20.9043C10.8466 20.9223 10.7969 21.0012 10.7898 21.0514C10.7721 21.1519 10.6018 21.0156 10.6053 21.1411C10.6089 21.1949 10.506 21.1842 10.5592 21.2703C10.6124 21.36 10.7898 21.2703 10.7437 21.3707C10.7082 21.4425 10.7437 21.4604 10.7721 21.5142C10.8147 21.5896 10.836 21.4425 10.8431 21.5322C10.8537 21.6505 11.0276 21.507 11.024 21.6147C11.0205 21.7115 11.1517 21.647 11.205 21.6183C11.2724 21.5824 11.3717 21.6577 11.4462 21.6685C11.5278 21.6828 11.613 21.6721 11.6946 21.6936C11.7691 21.7151 11.8188 21.8084 11.9075 21.7653C11.9678 21.7366 12.0139 21.7905 12.0707 21.8263C12.1417 21.873 12.2375 21.916 12.3084 21.9734C12.3794 22.0308 12.4361 21.9842 12.4858 21.9375C12.5213 21.9053 12.5071 21.7761 12.571 21.8371C12.6419 21.9053 12.7377 21.8299 12.7271 21.7618C12.72 21.7151 12.6526 21.6577 12.7448 21.6541C12.83 21.6505 12.9009 21.7115 12.9577 21.7044C12.9932 21.7008 13.0074 21.6218 13.0322 21.5752C13.0677 21.5035 13.1032 21.4066 13.089 21.3205C13.0783 21.2452 13.1138 21.1519 13.1777 21.2129C13.2416 21.2703 13.3267 21.3026 13.3409 21.403C13.3444 21.4389 13.3835 21.4783 13.4402 21.4281C13.4722 21.3994 13.497 21.4999 13.5609 21.4783C13.6106 21.4604 13.6354 21.5178 13.6673 21.5357C13.7028 21.5537 13.7454 21.6649 13.7489 21.5824C13.756 21.4963 13.866 21.4927 13.905 21.4461C13.9583 21.3815 14.0505 21.36 14.0647 21.4604C14.0718 21.5322 14.1215 21.5537 14.1995 21.5393C14.274 21.5286 14.2563 21.6864 14.3024 21.7402C14.3592 21.8084 14.4337 21.7187 14.5153 21.7546C14.5756 21.7797 14.5153 21.6613 14.5934 21.6326C14.6821 21.5967 14.5685 21.4963 14.5934 21.4102C14.6182 21.3277 14.6501 21.2416 14.5969 21.1483C14.5579 21.0765 14.6218 20.9904 14.6537 20.9187C14.6821 20.8505 14.6892 20.725 14.7708 20.7142C14.8595 20.7034 14.9233 20.6425 14.9801 20.5851C15.0333 20.5348 15.0475 20.4667 15.1114 20.42C15.1646 20.3842 15.0511 20.2837 15.1362 20.2299C15.2178 20.1797 15.1149 20.0649 15.1824 20.0254C15.2569 19.9824 15.3491 20.0218 15.4236 20.0505C15.4768 20.072 15.5372 19.9752 15.5904 20.0505C15.6436 20.1259 15.7429 20.1151 15.8281 20.133C15.9097 20.1474 15.9913 20.2227 16.0836 20.2012C16.151 20.1833 16.2184 20.072 16.1368 20.0218C16.0694 19.9788 15.9345 19.9465 15.9984 19.8317C16.0374 19.7599 15.9984 19.6631 16.0481 19.5949C16.08 19.5519 16.0658 19.5088 16.1332 19.4909C16.1971 19.4765 16.1439 19.3474 16.1687 19.2864C16.1971 19.2146 16.1049 19.0962 16.1439 19.0388C16.19 18.9707 16.2326 18.8523 16.19 18.7949C16.1474 18.7411 16.1652 18.698 16.1865 18.6442C16.2077 18.594 16.1119 18.4971 16.119 18.4074C16.1261 18.3249 16.1332 18.2281 16.2042 18.1743C16.261 18.1312 16.2255 18.0595 16.2184 18.0021C16.2113 17.9231 16.3106 17.9554 16.3639 17.916C16.41 17.8801 16.4774 17.9769 16.5661 17.9411C16.6619 17.9016 16.6158 18.1169 16.74 18.124C16.8358 18.1312 16.9245 18.1133 17.0203 18.1097C17.1161 18.1061 17.1551 18.1671 17.1622 18.2568C17.1693 18.3393 17.2296 18.4146 17.1693 18.5079C17.109 18.6012 17.2828 18.5868 17.3325 18.5904C17.3963 18.594 17.4247 18.4577 17.5241 18.4397C17.6199 18.4254 17.7121 18.5294 17.776 18.4756C17.8186 18.4397 17.7902 18.3716 17.847 18.3249C17.9073 18.2747 17.7866 18.124 17.8682 18.1204C17.9286 18.1169 17.9215 18.246 18.0137 18.264C18.1202 18.2855 18.1414 18.203 18.2408 18.2245C18.3401 18.246 18.333 18.2245 18.4005 18.264C18.4679 18.2998 18.4963 18.3608 18.5566 18.4003C18.6169 18.4397 18.6701 18.4935 18.7446 18.5115C18.8404 18.5366 18.9433 18.5366 19.0391 18.5653C19.1455 18.594 19.1349 18.7016 19.181 18.7734C19.2378 18.8631 19.3265 18.8595 19.4046 18.8989C19.4791 18.9348 19.5429 18.9886 19.6352 18.9922C19.7097 18.9958 19.7984 18.9599 19.8445 19.0496C19.8835 19.1249 19.9971 19.0891 20.0645 19.1644C20.1177 19.2254 20.1532 19.3474 20.2313 19.3402C20.3235 19.333 20.4158 19.3043 20.5045 19.351C20.579 19.3868 20.6535 19.3223 20.6819 19.2362C20.7173 19.1393 20.8486 19.1716 20.9302 19.1859C21.0012 19.1967 21.058 19.107 21.1218 19.1716C21.1928 19.2433 21.0438 19.2182 21.0899 19.2792C21.1147 19.3115 21.1715 19.2936 21.1963 19.3402C21.2176 19.3832 21.246 19.2684 21.2637 19.2684C21.2921 19.272 21.3276 19.394 21.3844 19.4478C21.4412 19.5016 21.5157 19.4586 21.5582 19.498C21.5937 19.5339 21.5192 19.5949 21.6079 19.6164C21.6789 19.6344 21.6327 19.5626 21.654 19.5519C21.686 19.5339 21.686 19.5913 21.7534 19.6057C21.8421 19.6236 21.6044 19.742 21.7214 19.7707C21.8243 19.7958 21.8243 19.8819 21.913 19.9214C21.9946 19.9573 22.0692 20.0218 22.1508 20.0685C22.2253 20.1115 22.3033 20.1366 22.3814 20.1868C22.4559 20.2335 22.5517 20.2263 22.6333 20.2622C22.7149 20.2945 22.8001 20.2801 22.8888 20.2801C23.0378 20.2765 23.1868 20.3124 23.3323 20.3124C23.4174 20.3124 23.5026 20.3124 23.5806 20.2801C23.6551 20.2514 23.7403 20.3232 23.8219 20.3483C23.9213 20.377 23.9958 20.255 24.0561 20.3339C24.1164 20.4129 24.1909 20.377 24.2477 20.3196C24.3044 20.2658 24.3577 20.2227 24.3719 20.133C24.3825 20.0685 24.5209 20.0541 24.5209 19.9608C24.5209 19.8891 24.5528 19.8209 24.5706 19.7563C24.5883 19.6882 24.7054 19.6918 24.7834 19.7384C24.8402 19.7707 24.975 19.7886 25.0034 19.7348C25.0424 19.6702 25.0921 19.6129 25.1524 19.6882C25.1915 19.7384 25.234 19.7779 25.3227 19.7922C25.3937 19.8066 25.4576 19.8963 25.5534 19.8819C25.6385 19.8711 25.7627 19.8281 25.8266 19.907C25.8798 19.9716 25.9472 20.0541 25.9082 20.1402C25.8833 20.1976 25.8869 20.377 25.9756 20.3052C26.0395 20.255 26.1423 20.2478 26.2204 20.2478C26.2807 20.2442 26.302 20.3339 26.3339 20.3662C26.3801 20.4093 26.4226 20.4882 26.5184 20.4559C26.5965 20.4308 26.6994 20.5277 26.7349 20.4774C26.7845 20.4129 26.8378 20.4523 26.8874 20.4631C26.9549 20.4774 27.0081 20.3985 27.0577 20.3806C27.111 20.359 27.1855 20.4057 27.2352 20.4667C27.2884 20.5348 27.3026 20.6425 27.2671 20.7178C27.2316 20.7931 27.3522 20.7752 27.299 20.8577C27.2564 20.9223 27.3309 21.0156 27.3345 21.0837C27.338 21.1519 27.2884 21.2452 27.3984 21.2595C27.4906 21.2703 27.5225 21.22 27.5545 21.1626C27.5793 21.1196 27.5758 21.0514 27.6006 20.9976C27.6361 20.9223 27.5687 20.8003 27.6432 20.7357C27.7141 20.6712 27.7567 20.5958 27.7603 20.4882C27.7638 20.4093 27.8454 20.3375 27.8596 20.2478C27.8738 20.1689 27.9625 20.1151 27.9909 20.0433C28.0157 19.9752 28.0477 19.9286 28.0973 19.8855C28.1435 19.846 28.1789 19.803 28.2322 19.7707C28.2747 19.7456 28.257 19.6738 28.3067 19.6308C28.3599 19.5877 28.367 19.4909 28.3563 19.4084C28.3492 19.3402 28.4273 19.2828 28.4734 19.2649C28.5302 19.2433 28.6083 19.2397 28.6295 19.1644C28.6473 19.107 28.7112 19.0927 28.7431 19.0317C28.775 18.9707 28.8566 18.9169 28.9418 18.9814C29.0021 19.0317 29.1192 18.9707 29.1759 19.0424C29.2256 19.1034 29.2859 19.0819 29.3392 19.1214C29.3888 19.1608 29.4456 19.2792 29.5308 19.2075C29.584 19.1644 29.5591 19.2756 29.6124 19.3043C29.6798 19.3366 29.7472 19.394 29.7898 19.4514C29.8146 19.4837 29.8927 19.4191 29.9565 19.455C30.0133 19.4873 30.031 19.3725 30.1055 19.3653C30.2013 19.3545 30.1978 19.2039 30.2829 19.168C30.361 19.1357 30.4426 19.2075 30.5065 19.2577C30.5703 19.3079 30.6129 19.3653 30.6768 19.4084C30.7336 19.4478 30.8435 19.4299 30.8755 19.394C30.9287 19.333 31.0103 19.3402 31.0848 19.3223C31.1629 19.3043 31.0919 19.1895 31.2019 19.1823C31.2622 19.1788 31.28 19.0891 31.3474 19.0604C31.4112 19.0317 31.4964 19.064 31.5567 19.0101C31.6241 18.9563 31.7554 19.0137 31.7944 18.8989C31.8264 18.8057 31.9186 18.7554 31.9576 18.6658C31.9931 18.5868 32.1067 18.5545 32.135 18.4864C32.1776 18.3931 32.2273 18.3608 32.3373 18.3716C32.4224 18.3823 32.5111 18.3429 32.5892 18.3859C32.6673 18.429 32.7169 18.3752 32.756 18.3357C32.8021 18.2891 32.7453 18.1599 32.8021 18.0846C32.8553 18.0128 32.7843 17.9016 32.8447 17.8299C32.9121 17.7474 32.8269 17.629 32.8943 17.5536C32.9405 17.4998 33.0221 17.4711 33.093 17.4675C33.1888 17.4675 33.2846 17.4388 33.3733 17.4604C33.4585 17.4819 33.5401 17.4568 33.6075 17.4101C33.6749 17.3635 33.7459 17.3204 33.7991 17.2523C33.8275 17.2164 33.8523 17.1913 33.8949 17.1554C33.941 17.1195 33.9091 16.9976 33.9694 16.9258C34.0368 16.8469 33.9729 16.75 33.9552 16.6639C33.941 16.5922 33.9871 16.5455 33.9446 16.4738C33.9091 16.4092 33.9658 16.3267 34.0439 16.2837C34.1362 16.2334 34.0616 16.1079 34.0581 16.0218C34.0545 15.9536 34.122 15.9357 34.1326 15.8639C34.1468 15.7778 34.1965 15.6917 34.122 15.6128C34.0581 15.5446 34.1291 15.4549 34.2 15.4011C34.271 15.3473 34.3597 15.2684 34.3313 15.1428C34.3065 15.0316 34.4661 15.0854 34.5335 15.0244C34.5903 14.9742 34.7038 15.0747 34.7677 15.0173C34.8351 14.9599 34.9096 14.9563 34.97 14.8917C35.0125 14.8487 35.0657 14.8558 35.1083 14.8128C35.1686 14.7554 35.2751 14.7697 35.3567 14.7303C35.4454 14.6872 35.4454 14.5617 35.527 14.515C35.5589 14.4971 35.527 14.4361 35.5802 14.411C35.6689 14.3715 35.5412 14.2388 35.5518 14.1455C35.566 14.0379 35.7221 14.167 35.7789 14.1096C35.8215 14.0666 35.8215 14.0164 35.896 13.9948C35.9705 13.9733 35.9315 13.8513 36.0024 13.8083C36.0734 13.7652 36.0805 13.6397 36.1444 13.5715C36.1976 13.5177 36.3147 13.4818 36.2898 13.4101C36.2756 13.3706 36.2153 13.3276 36.2153 13.2773C36.2153 13.2522 36.2224 13.2271 36.2437 13.2056C36.3147 13.141 36.3998 13.08 36.4956 13.0657C36.5488 13.0585 36.5808 13.0406 36.595 13.1123C36.6163 13.2163 36.7546 13.141 36.8256 13.1195C36.8966 13.1015 36.9995 13.0047 37.0385 13.0513C37.0988 13.1267 37.2088 13.0549 37.262 13.1231C37.3081 13.1805 37.4039 13.202 37.4678 13.1554C37.5459 13.098 37.5955 13.0262 37.6807 12.976C37.7694 12.9258 37.8687 12.9652 37.9503 12.9258C38.0036 12.9006 37.8971 12.9042 37.9007 12.8397C37.9078 12.7536 38.0213 12.7177 37.9965 12.6208C37.9752 12.5347 37.9149 12.4953 37.8829 12.4271C37.8474 12.3589 37.89 12.2477 37.8439 12.2154C37.7729 12.1652 37.7907 12.0576 37.7587 11.9858C37.7233 11.8997 37.6878 11.81 37.67 11.7132C37.6558 11.6414 37.7233 11.5338 37.6168 11.5051C37.5423 11.4872 37.443 11.4154 37.3826 11.4943C37.3152 11.584 37.223 11.5015 37.1662 11.4621C37.1059 11.419 37.1201 11.2504 36.9959 11.297C36.9072 11.3293 36.8079 11.2755 36.7192 11.2576C36.6446 11.2432 36.6198 11.1428 36.6446 11.0674C36.6695 10.9849 36.6127 10.9419 36.5595 10.8916C36.5027 10.8378 36.5276 10.7338 36.4814 10.6656C36.4353 10.5939 36.4637 10.515 36.3892 10.4504C36.336 10.4002 36.2437 10.2818 36.2792 10.2028C36.304 10.1454 36.414 10.1167 36.3714 10.0486C36.3537 10.0163 36.5205 9.95531 36.4211 9.93737C36.3502 9.92302 36.2544 9.90149 36.2614 9.80822C36.265 9.72571 36.3005 9.64678 36.2863 9.56427C36.2792 9.51046 36.2721 9.42077 36.194 9.47458C36.1479 9.50687 36.0947 9.37413 36.0592 9.45664C36.0344 9.51763 36.1444 9.60014 36.045 9.6396C35.9563 9.67548 35.8747 9.62526 35.7931 9.64319C35.7541 9.65037 35.7505 9.58938 35.715 9.56427C35.6547 9.52122 35.6157 9.48534 35.5341 9.47458C35.4489 9.46023 35.4667 9.29879 35.3531 9.3526C35.2751 9.39207 35.1651 9.42077 35.0941 9.35619C35.048 9.31314 34.8706 9.27727 34.938 9.36696C34.9558 9.39207 35.0551 9.38489 34.9983 9.41718C34.938 9.45306 35.0728 9.48893 34.9629 9.49969C34.8671 9.50687 34.7535 9.54633 34.6719 9.47099C34.5903 9.39207 34.6755 9.27009 34.6293 9.18399C34.5832 9.10148 34.4413 9.12659 34.3632 9.12659C34.2603 9.12659 34.2249 9.10866 34.2603 9.01897C34.3065 8.88982 34.1362 8.90058 34.0581 8.86829C33.9871 8.83959 34.0013 8.95081 33.9907 8.99744C33.9694 9.07996 33.8842 8.95798 33.8168 8.94722C33.7352 8.93287 33.6643 8.92928 33.6181 8.85036C33.5791 8.78219 33.6501 8.69251 33.5365 8.63511C33.494 8.61358 33.533 8.52748 33.462 8.52031C33.3769 8.50955 33.3946 8.40551 33.3095 8.37322C33.2137 8.33734 33.0966 8.36246 33.0717 8.45932C33.054 8.52748 33.054 8.73914 33.1533 8.65663C33.2172 8.60282 33.2846 8.59923 33.2846 8.68892C33.2846 8.75349 33.3307 8.83242 33.2278 8.84677C33.1498 8.85753 33.0753 8.78578 33.0292 8.80372C32.9759 8.82524 32.9405 8.87906 32.8624 8.88623C32.7843 8.8934 32.7205 8.98309 32.6814 9.05843C32.6282 9.15529 32.5324 9.13377 32.4473 9.14812C32.3728 9.15888 32.2947 9.23422 32.2592 9.12659C32.2344 9.05484 32.0605 9.04767 32.0925 8.97233C32.1457 8.85753 32.0002 8.86112 31.9399 8.83959C31.876 8.81448 31.7944 8.78219 31.7944 8.69609C31.7944 8.64228 31.7944 8.54901 31.7164 8.50596C31.6773 8.48443 31.6915 8.44497 31.6951 8.39116C31.6986 8.35169 31.6348 8.29788 31.5709 8.26559C31.5106 8.23689 31.539 8.11133 31.4645 8.06828C31.4006 8.02882 31.3509 7.93913 31.3012 7.97859C31.2409 8.02882 31.2232 8.10416 31.1238 8.06111C31.0351 8.02164 31.0742 7.88532 30.9748 7.85303C30.8932 7.82792 30.8471 7.77411 30.801 7.70236C30.7655 7.64854 30.7229 7.59473 30.7974 7.55527C30.8613 7.51939 30.9429 7.51222 31.0138 7.47993C31.099 7.44047 31.1913 7.41536 31.28 7.40818C31.397 7.40101 31.3758 7.29697 31.4148 7.22881C31.4715 7.13912 31.6099 7.28979 31.6561 7.17858C31.688 7.09966 31.6561 7.00279 31.6951 6.93104C31.7235 6.87723 31.5673 6.84495 31.5035 6.8019C31.4148 6.74091 31.4751 6.64405 31.4928 6.56871C31.5106 6.48978 31.5922 6.43956 31.5957 6.36063C31.5993 6.29965 31.4786 6.34987 31.4467 6.26736C31.4183 6.18843 31.3083 6.10233 31.2303 6.15973C31.1558 6.21354 31.28 6.36063 31.1629 6.41445C31.0813 6.45391 31.0209 6.53283 30.9748 6.61535C30.9322 6.69068 30.7974 6.74091 30.7477 6.65122C30.7052 6.5723 30.5881 6.60817 30.5313 6.6584C30.4604 6.71938 30.3823 6.63328 30.3042 6.6297C30.2226 6.62252 30.141 6.64046 30.0665 6.6871C29.9956 6.73014 29.9565 6.79472 29.8927 6.83777C29.7756 6.91311 29.8217 6.73732 29.7791 6.67992C29.7436 6.63328 29.6833 6.65481 29.6336 6.61176C29.584 6.56512 29.435 6.55795 29.435 6.67633C29.435 6.79113 29.3427 6.70145 29.3179 6.63687C29.2824 6.54718 29.3604 6.50055 29.3569 6.41803C29.3534 6.35346 29.3888 6.22431 29.325 6.20637C29.2221 6.17408 29.1547 6.27453 29.0518 6.28171C28.9418 6.28888 28.8602 6.21713 28.7821 6.16332C28.7005 6.10951 28.6366 6.027 28.5621 5.95883C28.4805 5.88708 28.5586 5.77946 28.516 5.71847C28.4592 5.63237 28.3315 5.74 28.2393 5.74717C28.1399 5.75793 28.037 5.70412 27.9909 5.6252C27.9377 5.53192 27.8064 5.57497 27.7177 5.5678C27.6148 5.56062 27.5758 5.43147 27.4942 5.42788C27.4232 5.4243 27.37 5.38842 27.2955 5.44582C27.2352 5.48887 27.1819 5.35613 27.1181 5.3382C27.0258 5.31308 26.9478 5.21981 26.8626 5.20905C26.7845 5.19828 26.7491 5.3095 26.7136 5.37407C26.6817 5.43865 26.6036 5.5104 26.6213 5.57497C26.6426 5.64672 26.7491 5.66107 26.7987 5.72206C26.8342 5.76152 26.9087 5.74358 26.9265 5.81892C26.9478 5.90861 26.9016 6.01982 26.9797 6.08081C27.0542 6.1418 27.0507 6.2279 27.0613 6.31041C27.0755 6.40368 27.1855 6.41803 27.26 6.43956C27.3522 6.46467 27.4409 6.50055 27.4835 6.60458C27.5154 6.67992 27.5509 6.78037 27.4942 6.83418C27.4303 6.89158 27.4267 6.98486 27.5084 7.02432C27.5687 7.05302 27.5722 7.16065 27.5225 7.21087C27.5155 7.28262 27.3984 7.26468 27.3984 7.17858C27.3984 7.12477 27.3345 7.09607 27.3239 7.02432C27.3132 6.93463 27.2103 7.04584 27.2245 7.11042C27.2458 7.22163 27.1039 7.21804 27.0365 7.18217C26.9442 7.13194 26.8768 7.21446 26.8129 7.26109C26.7526 7.30773 26.8449 7.40101 26.7455 7.42971C26.6497 7.45841 26.6391 7.28621 26.5575 7.35796C26.4972 7.41177 26.4333 7.45482 26.3765 7.51581C26.3162 7.58038 26.3268 7.67366 26.2949 7.75258C26.2665 7.82074 26.2488 7.90326 26.1849 7.94989C26.114 8.00371 26.0217 8.02882 25.9827 8.11492C25.9543 8.17591 25.9437 8.23689 25.8691 8.26559C25.7769 8.29788 25.6705 8.30506 25.5853 8.26559C25.4966 8.22254 25.3937 8.22972 25.3227 8.14721C25.2695 8.08622 25.2447 8.00012 25.1737 7.96783C25.1311 7.94631 25.1063 7.93913 25.1205 7.87814C25.1382 7.80998 24.9715 7.78846 24.975 7.70236C24.9786 7.65931 24.9821 7.63419 24.9715 7.59114C24.9573 7.53733 24.9608 7.43688 24.9963 7.3759C25.0141 7.34719 24.9821 7.29697 24.9644 7.26468C24.9325 7.21446 24.9112 7.12477 24.8189 7.11759C24.7373 7.11042 24.7267 6.98486 24.6805 6.94181C24.6309 6.89876 24.5635 6.83777 24.5209 6.78396C24.4606 6.71221 24.4357 6.62252 24.3612 6.55795C24.3009 6.50413 24.2832 6.36781 24.2015 6.3714C24.1341 6.37498 24.0596 6.46467 24.01 6.3714C23.9709 6.29965 23.9106 6.23507 23.8716 6.17408C23.8396 6.12386 23.9106 6.00547 23.8787 5.93731C23.8396 5.85838 23.7226 5.93731 23.6587 5.91578C23.6019 5.89426 23.5452 5.87273 23.5168 5.94448C23.4955 5.99829 23.4068 6.04135 23.3784 5.95166C23.3536 5.87632 23.3145 5.80098 23.2649 5.73282C23.2258 5.67901 23.1762 5.59291 23.091 5.64672C22.9952 5.7113 23.0555 5.5104 22.981 5.46376C22.9207 5.4243 22.9739 5.24492 23.0449 5.30232C23.0839 5.33461 23.1336 5.49605 23.1797 5.40995C23.2258 5.32385 23.0484 5.24133 23.1123 5.17676C23.1478 5.14088 23.2578 5.19828 23.2471 5.10142C23.2365 4.98303 23.3926 5.04402 23.46 5.02967C23.5132 5.01891 23.5842 4.92563 23.5664 4.88258C23.531 4.7929 23.6232 4.77496 23.6658 4.8503C23.7013 4.91487 23.8432 4.879 23.8609 4.77855C23.8787 4.69603 23.9958 4.68886 24.0348 4.62787C24.0774 4.56688 23.9674 4.45926 24.0809 4.42339C24.1838 4.3911 24.0277 4.25836 24.0703 4.22607C24.1199 4.18661 24.2051 4.17943 24.269 4.14356C24.3293 4.10768 24.237 4.02876 24.2122 3.98571C24.1732 3.91037 24.1093 3.8458 24.0312 3.81351C23.9496 3.77764 23.9035 3.69512 23.868 3.6162C23.8396 3.55521 23.7509 3.55521 23.7261 3.4727C23.6942 3.37942 23.5593 3.43324 23.4813 3.45476C23.4032 3.47629 23.311 3.42965 23.2365 3.39377C23.1478 3.35072 23.0733 3.4153 23.0449 3.49422C23.02 3.56956 23.0307 3.6736 22.9384 3.71306C22.8497 3.74893 22.8143 3.71306 22.7894 3.64131C22.7575 3.55162 22.6546 3.53727 22.5801 3.5014C22.502 3.46552 22.4027 3.45835 22.3246 3.50857C22.2537 3.55162 22.2111 3.62696 22.165 3.69153C22.1188 3.75611 22.1898 3.89961 22.0727 3.89243C21.9982 3.88885 21.9982 4.05387 21.9059 3.98571C21.8563 3.94625 21.6966 3.89961 21.7569 3.8458C21.7995 3.80634 21.9059 3.79557 21.9237 3.73817C21.9343 3.7023 21.8669 3.69871 21.8776 3.63414C21.8953 3.53727 21.8243 3.44759 21.7924 3.3579C21.7676 3.28256 21.7285 3.2431 21.6505 3.22157C21.5582 3.19646 21.4873 3.2431 21.4092 3.27897C21.3418 3.31126 21.2673 3.32202 21.207 3.37942C21.1573 3.42606 21.0047 3.39736 21.0438 3.28974C21.0721 3.20722 21.0047 3.1283 20.9622 3.06014C20.9125 2.97762 20.877 2.89152 20.8699 2.79466C20.8628 2.71215 20.7812 2.60094 20.6925 2.66551C20.6464 2.6978 20.6428 2.78749 20.5612 2.76955C20.4619 2.74444 20.4016 2.83412 20.3022 2.81977C20.2206 2.80542 20.1071 2.84847 20.068 2.74085C20.0361 2.65116 19.9297 2.64399 19.8481 2.62964C19.7487 2.61529 19.6778 2.52919 19.5926 2.48614C19.5252 2.45385 19.4329 2.50049 19.3691 2.47537C19.2875 2.4395 19.1846 2.51842 19.1349 2.45026C19.0746 2.37134 18.9859 2.39286 18.9149 2.32111C18.8582 2.2673 18.773 2.21707 18.6985 2.20272C18.5956 2.1812 18.5743 2.3247 18.5317 2.39286C18.4892 2.46102 18.3508 2.53277 18.3472 2.41797C18.3437 2.34981 18.2727 2.28524 18.3047 2.25295C18.3543 2.19914 18.3543 2.13815 18.3543 2.09151C18.3543 2.0377 18.3259 1.95877 18.2656 1.89779C18.2018 1.8368 18.145 1.77581 18.0598 1.76505C17.9711 1.75429 17.925 1.67536 17.886 1.6072C17.8399 1.52827 17.7902 1.45652 17.7973 1.35607C17.8044 1.26997 17.705 1.16594 17.7583 1.10136C17.8044 1.04396 17.9321 0.982975 17.886 0.90405C17.8576 0.853825 17.7866 0.839475 17.8044 0.76055C17.8328 0.652925 17.6483 0.728262 17.6234 0.652925C17.6021 0.599113 17.6447 0.498662 17.5489 0.541712C17.4851 0.570412 17.4318 0.609875 17.3857 0.670862C17.3254 0.7462 17.2331 0.591937 17.258 0.505837C17.2828 0.423325 17.2438 0.340812 17.1409 0.394625C17.0628 0.434087 17.0699 0.563237 16.9954 0.574C16.9386 0.581175 16.8287 0.649338 16.8287 0.53095C16.8287 0.4879 16.9103 0.448438 16.8322 0.423325C16.7435 0.394625 16.6477 0.394625 16.5555 0.4018C16.4774 0.408975 16.4313 0.251125 16.3851 0.319287C16.3355 0.391037 16.2716 0.412562 16.2042 0.452025C16.1403 0.4879 16.1013 0.584763 16.1652 0.656513C16.2113 0.710325 16.2539 0.667275 16.3 0.652925C16.3497 0.634987 16.3745 0.753374 16.3958 0.803599C16.4135 0.843062 16.3071 0.850237 16.3532 0.914812C16.41 0.997324 16.3284 1.08701 16.2787 1.14441C16.2148 1.21975 16.2823 1.26639 16.3 1.32737C16.3213 1.39912 16.1971 1.42782 16.2539 1.51392C16.2858 1.56415 16.3355 1.70406 16.229 1.68254C16.1332 1.6646 16.0552 1.7507 15.9594 1.69689C15.8991 1.6646 15.8033 1.58567 15.7465 1.6359C15.6826 1.6933 15.6081 1.59285 15.5549 1.59644C15.4981 1.60002 15.4343 1.64666 15.3668 1.61079C15.2923 1.57132 15.3172 1.65025 15.3065 1.70047C15.2888 1.77581 15.2036 1.84039 15.2107 1.93366C15.2143 2.02694 15.122 2.11304 15.0369 2.08792C14.9517 2.06281 14.8737 2.00541 14.7814 2.0664C14.6821 2.12739 14.7743 1.89061 14.6466 1.91214C14.5721 1.92649 14.5153 1.91214 14.4585 1.85832C14.4018 1.80451 14.3237 1.82245 14.2457 1.78657C14.1428 1.73994 14.2031 1.64307 14.2208 1.57491C14.2386 1.4924 14.2953 1.42424 14.3627 1.36684C14.4195 1.31661 14.4302 1.14441 14.3698 1.10136C14.3131 1.0619 14.2173 1.15159 14.1463 1.18029C14.0789 1.2054 13.9334 1.29509 13.8909 1.20181C13.8447 1.10495 13.9796 1.07266 14.0115 0.997325C14.0505 0.911225 14.0541 0.825124 14.0683 0.731849C14.086 0.617049 13.9583 0.627812 13.9334 0.552474C13.8979 0.452024 13.8057 0.47355 13.7312 0.466375C13.6886 0.462787 13.7241 0.326463 13.6425 0.33005C13.5609 0.333638 13.4935 0.261887 13.5644 0.193725C13.6389 0.121975 13.4793 0.0287002 13.4793 0.147088C13.4793 0.2009 13.5112 0.355162 13.4225 0.283412C13.3622 0.236775 13.2664 0.139913 13.2132 0.218838C13.1564 0.297763 13.05 0.351575 12.9648 0.308525C12.8832 0.265475 12.8903 0.154262 12.8193 0.107625C12.7413 0.0538125 12.681 0.226013 12.6242 0.136326C12.5639 0.0717506 12.4965 0.0035875 12.4397 0Z" fill="black"/>
</g>
</svg>
