<svg width="1452" height="168" viewBox="0 0 1452 168" fill="none" xmlns="http://www.w3.org/2000/svg">
<path d="M0.506653 93.4375L15.8875 91.3281C16.2977 101.172 18.1434 107.91 21.4246 111.543C24.7059 115.176 29.2469 116.992 35.0477 116.992C39.325 116.992 43.0164 116.025 46.1219 114.092C49.2274 112.1 51.366 109.434 52.5379 106.094C53.7098 102.695 54.2957 97.3047 54.2957 89.9219V1.15234H71.3465V88.9551C71.3465 99.7363 70.0281 108.086 67.3914 114.004C64.8133 119.922 60.6824 124.434 54.9988 127.539C49.3738 130.645 42.7527 132.197 35.1356 132.197C23.827 132.197 15.1551 128.945 9.11993 122.441C3.14337 115.938 0.272278 106.27 0.506653 93.4375ZM154.495 118.486C148.635 123.467 142.981 126.982 137.532 129.033C132.141 131.084 126.34 132.109 120.129 132.109C109.875 132.109 101.995 129.619 96.4867 124.639C90.9789 119.6 88.225 113.184 88.225 105.391C88.225 100.82 89.2504 96.6602 91.3012 92.9102C93.4106 89.1016 96.1352 86.0547 99.475 83.7695C102.873 81.4844 106.682 79.7559 110.901 78.584C114.006 77.7637 118.694 76.9727 124.963 76.2109C137.737 74.6875 147.141 72.8711 153.176 70.7617C153.235 68.5938 153.264 67.2168 153.264 66.6309C153.264 60.1855 151.77 55.6445 148.782 53.0078C144.739 49.4336 138.733 47.6465 130.764 47.6465C123.323 47.6465 117.815 48.9648 114.241 51.6016C110.725 54.1797 108.118 58.7793 106.418 65.4004L90.9496 63.291C92.3559 56.6699 94.6703 51.3379 97.893 47.2949C101.116 43.1934 105.774 40.0586 111.868 37.8906C117.961 35.6641 125.022 34.5508 133.049 34.5508C141.018 34.5508 147.493 35.4883 152.473 37.3633C157.454 39.2383 161.116 41.6113 163.459 44.4824C165.803 47.2949 167.444 50.8691 168.381 55.2051C168.909 57.9004 169.172 62.7637 169.172 69.7949V90.8887C169.172 105.596 169.495 114.912 170.139 118.838C170.842 122.705 172.19 126.426 174.182 130H157.659C156.018 126.719 154.963 122.881 154.495 118.486ZM153.176 83.1543C147.434 85.498 138.821 87.4902 127.336 89.1309C120.832 90.0684 116.233 91.123 113.538 92.2949C110.842 93.4668 108.762 95.1953 107.297 97.4805C105.832 99.707 105.1 102.197 105.1 104.951C105.1 109.17 106.682 112.686 109.846 115.498C113.069 118.311 117.756 119.717 123.909 119.717C130.002 119.717 135.422 118.398 140.168 115.762C144.914 113.066 148.401 109.404 150.627 104.775C152.327 101.201 153.176 95.9277 153.176 88.9551V83.1543ZM190.27 130V1.15234H206.09V74.6289L243.531 36.6602H264.01L228.326 71.2891L267.613 130H248.102L217.252 82.2754L206.09 92.998V130H190.27ZM316.751 102.139L332.396 99.6777C333.275 105.947 335.706 110.752 339.691 114.092C343.734 117.432 349.359 119.102 356.566 119.102C363.831 119.102 369.222 117.637 372.738 114.707C376.253 111.719 378.011 108.232 378.011 104.248C378.011 100.674 376.458 97.8613 373.353 95.8105C371.185 94.4043 365.794 92.6172 357.181 90.4492C345.579 87.5195 337.523 85 333.011 82.8906C328.558 80.7227 325.159 77.7637 322.816 74.0137C320.53 70.2051 319.388 66.0156 319.388 61.4453C319.388 57.2852 320.325 53.4473 322.2 49.9316C324.134 46.3574 326.741 43.3984 330.023 41.0547C332.484 39.2383 335.823 37.7148 340.042 36.4844C344.32 35.1953 348.89 34.5508 353.753 34.5508C361.077 34.5508 367.493 35.6055 373.001 37.7148C378.568 39.8242 382.669 42.6953 385.306 46.3281C387.943 49.9023 389.759 54.707 390.755 60.7422L375.286 62.8516C374.583 58.0469 372.532 54.2969 369.134 51.6016C365.794 48.9062 361.048 47.5586 354.896 47.5586C347.63 47.5586 342.445 48.7598 339.339 51.1621C336.234 53.5645 334.681 56.377 334.681 59.5996C334.681 61.6504 335.325 63.4961 336.614 65.1367C337.904 66.8359 339.925 68.2422 342.679 69.3555C344.261 69.9414 348.919 71.2891 356.654 73.3984C367.845 76.3867 375.638 78.8477 380.032 80.7812C384.486 82.6562 387.972 85.4102 390.491 89.043C393.011 92.6758 394.271 97.1875 394.271 102.578C394.271 107.852 392.718 112.832 389.613 117.52C386.566 122.148 382.142 125.752 376.341 128.33C370.54 130.85 363.978 132.109 356.654 132.109C344.525 132.109 335.267 129.59 328.88 124.551C322.552 119.512 318.509 112.041 316.751 102.139ZM444.02 115.85L446.305 129.824C441.852 130.762 437.868 131.23 434.352 131.23C428.61 131.23 424.157 130.322 420.993 128.506C417.829 126.689 415.602 124.316 414.313 121.387C413.024 118.398 412.38 112.158 412.38 102.666V48.9648H400.778V36.6602H412.38V13.5449L428.112 4.05273V36.6602H444.02V48.9648H428.112V103.545C428.112 108.057 428.376 110.957 428.903 112.246C429.489 113.535 430.397 114.561 431.628 115.322C432.917 116.084 434.733 116.465 437.077 116.465C438.835 116.465 441.149 116.26 444.02 115.85ZM516.885 118.486C511.026 123.467 505.371 126.982 499.922 129.033C494.532 131.084 488.731 132.109 482.52 132.109C472.266 132.109 464.385 129.619 458.877 124.639C453.37 119.6 450.616 113.184 450.616 105.391C450.616 100.82 451.641 96.6602 453.692 92.9102C455.801 89.1016 458.526 86.0547 461.866 83.7695C465.264 81.4844 469.073 79.7559 473.291 78.584C476.397 77.7637 481.084 76.9727 487.354 76.2109C500.127 74.6875 509.532 72.8711 515.567 70.7617C515.625 68.5938 515.655 67.2168 515.655 66.6309C515.655 60.1855 514.161 55.6445 511.172 53.0078C507.129 49.4336 501.123 47.6465 493.155 47.6465C485.713 47.6465 480.205 48.9648 476.631 51.6016C473.116 54.1797 470.508 58.7793 468.809 65.4004L453.34 63.291C454.746 56.6699 457.061 51.3379 460.284 47.2949C463.506 43.1934 468.164 40.0586 474.258 37.8906C480.352 35.6641 487.413 34.5508 495.44 34.5508C503.409 34.5508 509.883 35.4883 514.864 37.3633C519.844 39.2383 523.506 41.6113 525.85 44.4824C528.194 47.2949 529.834 50.8691 530.772 55.2051C531.299 57.9004 531.563 62.7637 531.563 69.7949V90.8887C531.563 105.596 531.885 114.912 532.53 118.838C533.233 122.705 534.58 126.426 536.573 130H520.049C518.409 126.719 517.354 122.881 516.885 118.486ZM515.567 83.1543C509.825 85.498 501.211 87.4902 489.727 89.1309C483.223 90.0684 478.623 91.123 475.928 92.2949C473.233 93.4668 471.153 95.1953 469.688 97.4805C468.223 99.707 467.491 102.197 467.491 104.951C467.491 109.17 469.073 112.686 472.237 115.498C475.459 118.311 480.147 119.717 486.299 119.717C492.393 119.717 497.813 118.398 502.559 115.762C507.305 113.066 510.791 109.404 513.018 104.775C514.717 101.201 515.567 95.9277 515.567 88.9551V83.1543ZM578.5 130L542.992 36.6602H559.691L579.73 92.5586C581.898 98.5938 583.891 104.863 585.707 111.367C587.113 106.445 589.076 100.527 591.596 93.6133L612.338 36.6602H628.598L593.266 130H578.5ZM702.869 99.9414L719.216 101.963C716.638 111.514 711.863 118.926 704.89 124.199C697.918 129.473 689.011 132.109 678.172 132.109C664.519 132.109 653.679 127.92 645.652 119.541C637.683 111.104 633.699 99.2969 633.699 84.1211C633.699 68.418 637.742 56.2305 645.828 47.5586C653.914 38.8867 664.402 34.5508 677.293 34.5508C689.773 34.5508 699.968 38.7988 707.879 47.2949C715.789 55.791 719.744 67.7441 719.744 83.1543C719.744 84.0918 719.714 85.498 719.656 87.373H650.047C650.632 97.627 653.533 105.479 658.748 110.928C663.963 116.377 670.466 119.102 678.259 119.102C684.06 119.102 689.011 117.578 693.113 114.531C697.214 111.484 700.466 106.621 702.869 99.9414ZM650.925 74.3652H703.045C702.341 66.5137 700.349 60.625 697.068 56.6992C692.029 50.6055 685.496 47.5586 677.468 47.5586C670.203 47.5586 664.08 49.9902 659.099 54.8535C654.177 59.7168 651.453 66.2207 650.925 74.3652ZM678.347 15.3906L688.015 0.449219H705.945L686.17 25.0586H669.295L650.31 0.449219H668.416L678.347 15.3906ZM770.109 115.85L772.394 129.824C767.941 130.762 763.956 131.23 760.441 131.23C754.698 131.23 750.245 130.322 747.081 128.506C743.917 126.689 741.691 124.316 740.402 121.387C739.112 118.398 738.468 112.158 738.468 102.666V48.9648H726.866V36.6602H738.468V13.5449L754.2 4.05273V36.6602H770.109V48.9648H754.2V103.545C754.2 108.057 754.464 110.957 754.991 112.246C755.577 113.535 756.486 114.561 757.716 115.322C759.005 116.084 760.821 116.465 763.165 116.465C764.923 116.465 767.237 116.26 770.109 115.85ZM854.491 130L818.983 36.6602H835.682L855.721 92.5586C857.889 98.5938 859.881 104.863 861.698 111.367C863.104 106.445 865.067 100.527 867.586 93.6133L888.329 36.6602H904.588L869.256 130H854.491ZM961.548 130V1.15234H977.369V74.6289L1014.81 36.6602H1035.29L999.605 71.2891L1038.89 130H1019.38L988.531 82.2754L977.369 92.998V130H961.548ZM1047.68 130V36.6602H1061.92V50.8105C1065.56 44.1895 1068.9 39.8242 1071.94 37.7148C1075.05 35.6055 1078.45 34.5508 1082.14 34.5508C1087.47 34.5508 1092.89 36.25 1098.4 39.6484L1092.95 54.3262C1089.08 52.041 1085.21 50.8984 1081.35 50.8984C1077.89 50.8984 1074.78 51.9531 1072.03 54.0625C1069.28 56.1133 1067.31 58.9844 1066.14 62.6758C1064.38 68.3008 1063.51 74.4531 1063.51 81.1328V130H1047.68ZM1165.11 118.486C1159.25 123.467 1153.6 126.982 1148.15 129.033C1142.76 131.084 1136.96 132.109 1130.74 132.109C1120.49 132.109 1112.61 129.619 1107.1 124.639C1101.59 119.6 1098.84 113.184 1098.84 105.391C1098.84 100.82 1099.87 96.6602 1101.92 92.9102C1104.03 89.1016 1106.75 86.0547 1110.09 83.7695C1113.49 81.4844 1117.3 79.7559 1121.52 78.584C1124.62 77.7637 1129.31 76.9727 1135.58 76.2109C1148.35 74.6875 1157.76 72.8711 1163.79 70.7617C1163.85 68.5938 1163.88 67.2168 1163.88 66.6309C1163.88 60.1855 1162.39 55.6445 1159.4 53.0078C1155.35 49.4336 1149.35 47.6465 1141.38 47.6465C1133.94 47.6465 1128.43 48.9648 1124.86 51.6016C1121.34 54.1797 1118.73 58.7793 1117.03 65.4004L1101.57 63.291C1102.97 56.6699 1105.29 51.3379 1108.51 47.2949C1111.73 43.1934 1116.39 40.0586 1122.48 37.8906C1128.58 35.6641 1135.64 34.5508 1143.66 34.5508C1151.63 34.5508 1158.11 35.4883 1163.09 37.3633C1168.07 39.2383 1171.73 41.6113 1174.07 44.4824C1176.42 47.2949 1178.06 50.8691 1179 55.2051C1179.52 57.9004 1179.79 62.7637 1179.79 69.7949V90.8887C1179.79 105.596 1180.11 114.912 1180.75 118.838C1181.46 122.705 1182.81 126.426 1184.8 130H1168.27C1166.63 126.719 1165.58 122.881 1165.11 118.486ZM1163.79 83.1543C1158.05 85.498 1149.44 87.4902 1137.95 89.1309C1131.45 90.0684 1126.85 91.123 1124.15 92.2949C1121.46 93.4668 1119.38 95.1953 1117.91 97.4805C1116.45 99.707 1115.72 102.197 1115.72 104.951C1115.72 109.17 1117.3 112.686 1120.46 115.498C1123.68 118.311 1128.37 119.717 1134.52 119.717C1140.62 119.717 1146.04 118.398 1150.78 115.762C1155.53 113.066 1159.02 109.404 1161.24 104.775C1162.94 101.201 1163.79 95.9277 1163.79 88.9551V83.1543ZM1200.71 19.5215V1.15234H1216.53V19.5215H1200.71ZM1180.67 166.211L1183.66 152.764C1186.82 153.584 1189.31 153.994 1191.13 153.994C1194.35 153.994 1196.75 152.91 1198.34 150.742C1199.92 148.633 1200.71 143.301 1200.71 134.746V36.6602H1216.53V135.098C1216.53 146.582 1215.04 154.58 1212.05 159.092C1208.24 164.951 1201.91 167.881 1193.06 167.881C1188.79 167.881 1184.65 167.324 1180.67 166.211ZM1237.36 19.3457V1.15234H1253.18V19.3457H1237.36ZM1237.36 130V36.6602H1253.18V130H1237.36ZM1273.75 130V36.6602H1287.99V49.9316C1294.85 39.6777 1304.75 34.5508 1317.7 34.5508C1323.32 34.5508 1328.48 35.5762 1333.17 37.627C1337.91 39.6191 1341.46 42.2559 1343.8 45.5371C1346.15 48.8184 1347.79 52.7148 1348.72 57.2266C1349.31 60.1562 1349.6 65.2832 1349.6 72.6074V130H1333.78V73.2227C1333.78 66.7773 1333.17 61.9727 1331.94 58.8086C1330.71 55.5859 1328.51 53.0371 1325.35 51.1621C1322.24 49.2285 1318.58 48.2617 1314.36 48.2617C1307.62 48.2617 1301.79 50.4004 1296.87 54.6777C1292.01 58.9551 1289.57 67.0703 1289.57 79.0234V130H1273.75ZM1434.25 99.9414L1450.59 101.963C1448.01 111.514 1443.24 118.926 1436.27 124.199C1429.29 129.473 1420.39 132.109 1409.55 132.109C1395.9 132.109 1385.06 127.92 1377.03 119.541C1369.06 111.104 1365.08 99.2969 1365.08 84.1211C1365.08 68.418 1369.12 56.2305 1377.2 47.5586C1385.29 38.8867 1395.78 34.5508 1408.67 34.5508C1421.15 34.5508 1431.34 38.7988 1439.26 47.2949C1447.17 55.791 1451.12 67.7441 1451.12 83.1543C1451.12 84.0918 1451.09 85.498 1451.03 87.373H1381.42C1382.01 97.627 1384.91 105.479 1390.12 110.928C1395.34 116.377 1401.84 119.102 1409.64 119.102C1415.44 119.102 1420.39 117.578 1424.49 114.531C1428.59 111.484 1431.84 106.621 1434.25 99.9414ZM1382.3 74.3652H1434.42C1433.72 66.5137 1431.73 60.625 1428.44 56.6992C1423.41 50.6055 1416.87 47.5586 1408.84 47.5586C1401.58 47.5586 1395.46 49.9902 1390.48 54.8535C1385.55 59.7168 1382.83 66.2207 1382.3 74.3652ZM1409.72 15.3906L1419.39 0.449219H1437.32L1417.55 25.0586H1400.67L1381.69 0.449219H1399.79L1409.72 15.3906Z" fill="white"/>
</svg>
