<svg width="1834" height="207" viewBox="0 0 1834 207" fill="none" xmlns="http://www.w3.org/2000/svg">
<path d="M375.507 129.438L390.888 127.328C391.298 137.172 393.143 143.91 396.425 147.543C399.706 151.176 404.247 152.992 410.048 152.992C414.325 152.992 418.016 152.025 421.122 150.092C424.227 148.1 426.366 145.434 427.538 142.094C428.71 138.695 429.296 133.305 429.296 125.922V37.1523H446.346V124.955C446.346 135.736 445.028 144.086 442.391 150.004C439.813 155.922 435.682 160.434 429.999 163.539C424.374 166.645 417.753 168.197 410.136 168.197C398.827 168.197 390.155 164.945 384.12 158.441C378.143 151.938 375.272 142.27 375.507 129.438ZM529.495 154.486C523.635 159.467 517.981 162.982 512.532 165.033C507.141 167.084 501.34 168.109 495.129 168.109C484.875 168.109 476.995 165.619 471.487 160.639C465.979 155.6 463.225 149.184 463.225 141.391C463.225 136.82 464.25 132.66 466.301 128.91C468.411 125.102 471.135 122.055 474.475 119.77C477.873 117.484 481.682 115.756 485.901 114.584C489.006 113.764 493.694 112.973 499.963 112.211C512.737 110.688 522.141 108.871 528.176 106.762C528.235 104.594 528.264 103.217 528.264 102.631C528.264 96.1855 526.77 91.6445 523.782 89.0078C519.739 85.4336 513.733 83.6465 505.764 83.6465C498.323 83.6465 492.815 84.9648 489.241 87.6016C485.725 90.1797 483.118 94.7793 481.418 101.4L465.95 99.291C467.356 92.6699 469.67 87.3379 472.893 83.2949C476.116 79.1934 480.774 76.0586 486.868 73.8906C492.961 71.6641 500.022 70.5508 508.049 70.5508C516.018 70.5508 522.493 71.4883 527.473 73.3633C532.454 75.2383 536.116 77.6113 538.459 80.4824C540.803 83.2949 542.444 86.8691 543.381 91.2051C543.909 93.9004 544.172 98.7637 544.172 105.795V126.889C544.172 141.596 544.495 150.912 545.139 154.838C545.842 158.705 547.19 162.426 549.182 166H532.659C531.018 162.719 529.963 158.881 529.495 154.486ZM528.176 119.154C522.434 121.498 513.821 123.49 502.336 125.131C495.832 126.068 491.233 127.123 488.538 128.295C485.842 129.467 483.762 131.195 482.297 133.48C480.832 135.707 480.1 138.197 480.1 140.951C480.1 145.17 481.682 148.686 484.846 151.498C488.069 154.311 492.756 155.717 498.909 155.717C505.002 155.717 510.422 154.398 515.168 151.762C519.914 149.066 523.401 145.404 525.627 140.775C527.327 137.201 528.176 131.928 528.176 124.955V119.154ZM565.27 166V37.1523H581.09V110.629L618.531 72.6602H639.01L603.326 107.289L642.613 166H623.102L592.252 118.275L581.09 128.998V166H565.27ZM691.751 138.139L707.396 135.678C708.275 141.947 710.706 146.752 714.691 150.092C718.734 153.432 724.359 155.102 731.566 155.102C738.831 155.102 744.222 153.637 747.738 150.707C751.253 147.719 753.011 144.232 753.011 140.248C753.011 136.674 751.458 133.861 748.353 131.811C746.185 130.404 740.794 128.617 732.181 126.449C720.579 123.52 712.523 121 708.011 118.891C703.558 116.723 700.159 113.764 697.816 110.014C695.53 106.205 694.388 102.016 694.388 97.4453C694.388 93.2852 695.325 89.4473 697.2 85.9316C699.134 82.3574 701.741 79.3984 705.023 77.0547C707.484 75.2383 710.823 73.7148 715.042 72.4844C719.32 71.1953 723.89 70.5508 728.753 70.5508C736.077 70.5508 742.493 71.6055 748.001 73.7148C753.568 75.8242 757.669 78.6953 760.306 82.3281C762.943 85.9023 764.759 90.707 765.755 96.7422L750.286 98.8516C749.583 94.0469 747.532 90.2969 744.134 87.6016C740.794 84.9062 736.048 83.5586 729.896 83.5586C722.63 83.5586 717.445 84.7598 714.339 87.1621C711.234 89.5645 709.681 92.377 709.681 95.5996C709.681 97.6504 710.325 99.4961 711.614 101.137C712.904 102.836 714.925 104.242 717.679 105.355C719.261 105.941 723.919 107.289 731.654 109.398C742.845 112.387 750.638 114.848 755.032 116.781C759.486 118.656 762.972 121.41 765.491 125.043C768.011 128.676 769.271 133.188 769.271 138.578C769.271 143.852 767.718 148.832 764.613 153.52C761.566 158.148 757.142 161.752 751.341 164.33C745.54 166.85 738.978 168.109 731.654 168.109C719.525 168.109 710.267 165.59 703.88 160.551C697.552 155.512 693.509 148.041 691.751 138.139ZM819.02 151.85L821.305 165.824C816.852 166.762 812.868 167.23 809.352 167.23C803.61 167.23 799.157 166.322 795.993 164.506C792.829 162.689 790.602 160.316 789.313 157.387C788.024 154.398 787.38 148.158 787.38 138.666V84.9648H775.778V72.6602H787.38V49.5449L803.112 40.0527V72.6602H819.02V84.9648H803.112V139.545C803.112 144.057 803.376 146.957 803.903 148.246C804.489 149.535 805.397 150.561 806.628 151.322C807.917 152.084 809.733 152.465 812.077 152.465C813.835 152.465 816.149 152.26 819.02 151.85ZM891.885 154.486C886.026 159.467 880.371 162.982 874.922 165.033C869.532 167.084 863.731 168.109 857.52 168.109C847.266 168.109 839.385 165.619 833.877 160.639C828.37 155.6 825.616 149.184 825.616 141.391C825.616 136.82 826.641 132.66 828.692 128.91C830.801 125.102 833.526 122.055 836.866 119.77C840.264 117.484 844.073 115.756 848.291 114.584C851.397 113.764 856.084 112.973 862.354 112.211C875.127 110.688 884.532 108.871 890.567 106.762C890.625 104.594 890.655 103.217 890.655 102.631C890.655 96.1855 889.161 91.6445 886.172 89.0078C882.129 85.4336 876.123 83.6465 868.155 83.6465C860.713 83.6465 855.205 84.9648 851.631 87.6016C848.116 90.1797 845.508 94.7793 843.809 101.4L828.34 99.291C829.746 92.6699 832.061 87.3379 835.284 83.2949C838.506 79.1934 843.164 76.0586 849.258 73.8906C855.352 71.6641 862.413 70.5508 870.44 70.5508C878.409 70.5508 884.883 71.4883 889.864 73.3633C894.844 75.2383 898.506 77.6113 900.85 80.4824C903.194 83.2949 904.834 86.8691 905.772 91.2051C906.299 93.9004 906.563 98.7637 906.563 105.795V126.889C906.563 141.596 906.885 150.912 907.53 154.838C908.233 158.705 909.58 162.426 911.573 166H895.049C893.409 162.719 892.354 158.881 891.885 154.486ZM890.567 119.154C884.825 121.498 876.211 123.49 864.727 125.131C858.223 126.068 853.623 127.123 850.928 128.295C848.233 129.467 846.153 131.195 844.688 133.48C843.223 135.707 842.491 138.197 842.491 140.951C842.491 145.17 844.073 148.686 847.237 151.498C850.459 154.311 855.147 155.717 861.299 155.717C867.393 155.717 872.813 154.398 877.559 151.762C882.305 149.066 885.791 145.404 888.018 140.775C889.717 137.201 890.567 131.928 890.567 124.955V119.154ZM953.5 166L917.992 72.6602H934.691L954.73 128.559C956.898 134.594 958.891 140.863 960.707 147.367C962.113 142.445 964.076 136.527 966.596 129.613L987.338 72.6602H1003.6L968.266 166H953.5ZM1077.87 135.941L1094.22 137.963C1091.64 147.514 1086.86 154.926 1079.89 160.199C1072.92 165.473 1064.01 168.109 1053.17 168.109C1039.52 168.109 1028.68 163.92 1020.65 155.541C1012.68 147.104 1008.7 135.297 1008.7 120.121C1008.7 104.418 1012.74 92.2305 1020.83 83.5586C1028.91 74.8867 1039.4 70.5508 1052.29 70.5508C1064.77 70.5508 1074.97 74.7988 1082.88 83.2949C1090.79 91.791 1094.74 103.744 1094.74 119.154C1094.74 120.092 1094.71 121.498 1094.66 123.373H1025.05C1025.63 133.627 1028.53 141.479 1033.75 146.928C1038.96 152.377 1045.47 155.102 1053.26 155.102C1059.06 155.102 1064.01 153.578 1068.11 150.531C1072.21 147.484 1075.47 142.621 1077.87 135.941ZM1025.93 110.365H1078.04C1077.34 102.514 1075.35 96.625 1072.07 92.6992C1067.03 86.6055 1060.5 83.5586 1052.47 83.5586C1045.2 83.5586 1039.08 85.9902 1034.1 90.8535C1029.18 95.7168 1026.45 102.221 1025.93 110.365ZM1053.35 51.3906L1063.02 36.4492H1080.94L1061.17 61.0586H1044.29L1025.31 36.4492H1043.42L1053.35 51.3906ZM1145.11 151.85L1147.39 165.824C1142.94 166.762 1138.96 167.23 1135.44 167.23C1129.7 167.23 1125.25 166.322 1122.08 164.506C1118.92 162.689 1116.69 160.316 1115.4 157.387C1114.11 154.398 1113.47 148.158 1113.47 138.666V84.9648H1101.87V72.6602H1113.47V49.5449L1129.2 40.0527V72.6602H1145.11V84.9648H1129.2V139.545C1129.2 144.057 1129.46 146.957 1129.99 148.246C1130.58 149.535 1131.49 150.561 1132.72 151.322C1134.01 152.084 1135.82 152.465 1138.17 152.465C1139.92 152.465 1142.24 152.26 1145.11 151.85ZM1229.49 166L1193.98 72.6602H1210.68L1230.72 128.559C1232.89 134.594 1234.88 140.863 1236.7 147.367C1238.1 142.445 1240.07 136.527 1242.59 129.613L1263.33 72.6602H1279.59L1244.26 166H1229.49ZM1336.55 166V37.1523H1352.37V110.629L1389.81 72.6602H1410.29L1374.61 107.289L1413.89 166H1394.38L1363.53 118.275L1352.37 128.998V166H1336.55ZM1422.68 166V72.6602H1436.92V86.8105C1440.56 80.1895 1443.9 75.8242 1446.94 73.7148C1450.05 71.6055 1453.45 70.5508 1457.14 70.5508C1462.47 70.5508 1467.89 72.25 1473.4 75.6484L1467.95 90.3262C1464.08 88.041 1460.21 86.8984 1456.35 86.8984C1452.89 86.8984 1449.78 87.9531 1447.03 90.0625C1444.28 92.1133 1442.31 94.9844 1441.14 98.6758C1439.38 104.301 1438.51 110.453 1438.51 117.133V166H1422.68ZM1540.11 154.486C1534.25 159.467 1528.6 162.982 1523.15 165.033C1517.76 167.084 1511.96 168.109 1505.74 168.109C1495.49 168.109 1487.61 165.619 1482.1 160.639C1476.59 155.6 1473.84 149.184 1473.84 141.391C1473.84 136.82 1474.87 132.66 1476.92 128.91C1479.03 125.102 1481.75 122.055 1485.09 119.77C1488.49 117.484 1492.3 115.756 1496.52 114.584C1499.62 113.764 1504.31 112.973 1510.58 112.211C1523.35 110.688 1532.76 108.871 1538.79 106.762C1538.85 104.594 1538.88 103.217 1538.88 102.631C1538.88 96.1855 1537.39 91.6445 1534.4 89.0078C1530.35 85.4336 1524.35 83.6465 1516.38 83.6465C1508.94 83.6465 1503.43 84.9648 1499.86 87.6016C1496.34 90.1797 1493.73 94.7793 1492.03 101.4L1476.57 99.291C1477.97 92.6699 1480.29 87.3379 1483.51 83.2949C1486.73 79.1934 1491.39 76.0586 1497.48 73.8906C1503.58 71.6641 1510.64 70.5508 1518.66 70.5508C1526.63 70.5508 1533.11 71.4883 1538.09 73.3633C1543.07 75.2383 1546.73 77.6113 1549.07 80.4824C1551.42 83.2949 1553.06 86.8691 1554 91.2051C1554.52 93.9004 1554.79 98.7637 1554.79 105.795V126.889C1554.79 141.596 1555.11 150.912 1555.75 154.838C1556.46 158.705 1557.81 162.426 1559.8 166H1543.27C1541.63 162.719 1540.58 158.881 1540.11 154.486ZM1538.79 119.154C1533.05 121.498 1524.44 123.49 1512.95 125.131C1506.45 126.068 1501.85 127.123 1499.15 128.295C1496.46 129.467 1494.38 131.195 1492.91 133.48C1491.45 135.707 1490.72 138.197 1490.72 140.951C1490.72 145.17 1492.3 148.686 1495.46 151.498C1498.68 154.311 1503.37 155.717 1509.52 155.717C1515.62 155.717 1521.04 154.398 1525.78 151.762C1530.53 149.066 1534.02 145.404 1536.24 140.775C1537.94 137.201 1538.79 131.928 1538.79 124.955V119.154ZM1575.71 55.5215V37.1523H1591.53V55.5215H1575.71ZM1555.67 202.211L1558.66 188.764C1561.82 189.584 1564.31 189.994 1566.13 189.994C1569.35 189.994 1571.75 188.91 1573.34 186.742C1574.92 184.633 1575.71 179.301 1575.71 170.746V72.6602H1591.53V171.098C1591.53 182.582 1590.04 190.58 1587.05 195.092C1583.24 200.951 1576.91 203.881 1568.06 203.881C1563.79 203.881 1559.65 203.324 1555.67 202.211ZM1612.36 55.3457V37.1523H1628.18V55.3457H1612.36ZM1612.36 166V72.6602H1628.18V166H1612.36ZM1648.75 166V72.6602H1662.99V85.9316C1669.85 75.6777 1679.75 70.5508 1692.7 70.5508C1698.32 70.5508 1703.48 71.5762 1708.17 73.627C1712.91 75.6191 1716.46 78.2559 1718.8 81.5371C1721.15 84.8184 1722.79 88.7148 1723.72 93.2266C1724.31 96.1562 1724.6 101.283 1724.6 108.607V166H1708.78V109.223C1708.78 102.777 1708.17 97.9727 1706.94 94.8086C1705.71 91.5859 1703.51 89.0371 1700.35 87.1621C1697.24 85.2285 1693.58 84.2617 1689.36 84.2617C1682.62 84.2617 1676.79 86.4004 1671.87 90.6777C1667.01 94.9551 1664.57 103.07 1664.57 115.023V166H1648.75ZM1809.25 135.941L1825.59 137.963C1823.01 147.514 1818.24 154.926 1811.27 160.199C1804.29 165.473 1795.39 168.109 1784.55 168.109C1770.9 168.109 1760.06 163.92 1752.03 155.541C1744.06 147.104 1740.08 135.297 1740.08 120.121C1740.08 104.418 1744.12 92.2305 1752.2 83.5586C1760.29 74.8867 1770.78 70.5508 1783.67 70.5508C1796.15 70.5508 1806.34 74.7988 1814.26 83.2949C1822.17 91.791 1826.12 103.744 1826.12 119.154C1826.12 120.092 1826.09 121.498 1826.03 123.373H1756.42C1757.01 133.627 1759.91 141.479 1765.12 146.928C1770.34 152.377 1776.84 155.102 1784.64 155.102C1790.44 155.102 1795.39 153.578 1799.49 150.531C1803.59 147.484 1806.84 142.621 1809.25 135.941ZM1757.3 110.365H1809.42C1808.72 102.514 1806.73 96.625 1803.44 92.6992C1798.41 86.6055 1791.87 83.5586 1783.84 83.5586C1776.58 83.5586 1770.46 85.9902 1765.48 90.8535C1760.55 95.7168 1757.83 102.221 1757.3 110.365ZM1784.72 51.3906L1794.39 36.4492H1812.32L1792.55 61.0586H1775.67L1756.69 36.4492H1774.79L1784.72 51.3906Z" fill="white"/>
<path d="M27.8965 67.8653V65.4375L24.8881 66.6514L21.1959 67.8653L17.5037 69.3489L15.9995 73.665H13.538H9.43559L6.83739 77.5764L9.43559 84.59L13.538 85.5342V91.0641H19.6917L29.264 74.8789L26.6658 71.7767L24.8881 69.3489V67.8653H27.8965Z" fill="white"/>
<path d="M9.43559 91.0641H6.83739L4.92292 93.7617L3.28195 94.7058V100.236L0.820486 101.585L0 103.203L1.91447 104.687V105.766L4.10243 106.98H6.83739L8.34161 104.687L6.83739 101.045V99.5614V98.2126V97.1336L10.8031 93.6268L9.43559 92.278V91.0641Z" fill="white"/>
<path d="M11.4868 108.733L6.83739 110.486V112.375H8.34161V113.858L9.43559 116.016L10.8031 118.579L12.0338 119.119V121.816L12.991 127.076L15.3157 127.616L18.1874 129.369V130.718L19.6917 132.876H21.1959L22.5634 132.202V131.123L21.1959 129.369L19.6917 127.076L18.4609 124.918V121.816L16.82 120.063L14.7688 119.119V117.905L15.9995 117.095V115.072H14.7688H13.538L14.085 112.375V109.947L13.538 108.733H11.4868Z" fill="white"/>
<path d="M33.7767 138.406L32.546 139.35L33.093 140.294L33.7767 141.643L35.6912 142.587V144.071L38.5629 146.768V149.061L41.4346 149.871H42.2551L42.6653 148.387L44.0328 147.038L45.1268 145.554L46.7677 146.364H48.6822L51.2804 147.847L53.4684 149.061H55.3828L59.7588 151.489L60.8527 156.614L63.3142 158.098V161.74L65.0919 162.414L64.6817 163.493L65.5022 165.651L67.2799 166.326L70.2883 165.651L72.3396 167.135L73.16 166.865L74.3908 167.674L74.801 169.158L76.989 171.181L77.6727 174.148L75.6215 176.711L78.6299 180.488L79.9974 180.892L81.7751 183.05L83.1426 183.86L82.7324 184.804V185.883H80.9547V186.692H82.4589V188.311L83.1426 188.85L85.4673 189.39L85.6041 189.12L86.1511 188.85L87.9288 189.39L88.339 188.85V187.232L87.9288 185.208L87.6553 183.05L86.5613 182.511L86.1511 180.892L85.4673 178.465L86.5613 176.306L86.1511 175.362V173.474L84.6468 172.53L84.0999 171.586V169.158L80.9547 166.326L79.4504 165.381L78.6299 163.493L77.2625 162.414H78.6299L77.6727 161.74L76.5787 159.717L76.0317 158.098H74.801L73.9805 156.614L73.16 156.075L72.0661 155.67H70.1516V156.614H68.9209L67.8269 157.019V156.075L66.8696 154.996V154.456H65.5022L64.2714 151.894L62.4937 151.489L60.8527 149.871L59.7588 149.466L58.1178 148.387H57.1606L56.6136 147.847H55.3828L54.6991 147.443L56.0666 146.364L54.1521 145.554L53.4684 146.364H52.2376L51.2804 145.15L47.725 144.745L44.0328 143.127V141.643L45.1268 140.294L44.0328 138.406L41.8448 137.462L40.7508 139.35L38.5629 138.406H35.6912H33.7767Z" fill="white"/>
<path d="M89.0435 161.444L89.4547 158.895H91.3738L92.7445 160.371L94.5265 161.444L96.1714 161.847L97.268 162.92V164.664L98.0905 166.409V168.019V171.239L96.1714 172.715L93.4299 173.251L92.3333 172.044L90.4143 170.702L89.0435 167.616L88.084 164.128L88.6323 162.518L89.0435 161.444Z" fill="white"/>
<path d="M128.521 170.702L127.562 174.056L126.328 173.251L124.82 174.056L122.901 173.251L120.434 172.715L119.474 168.824L118.926 166.945V164.664H117.418L116.184 163.457L117.418 161.444H116.184V160.371L114.951 159.7L113.717 156.614L113.306 154.467L114.265 153.126L112.346 152.052V150.174L113.306 146.149L116.184 145.612H119.474H122.216L123.861 146.819L125.368 148.832V152.052L126.328 157.016L129.344 158.895L128.521 163.457V166.945V168.019V170.702Z" fill="white"/>
<path d="M210.081 169.763L210.629 172.58L212 174.861L213.508 175.264L215.016 176.203L215.701 175.264V174.056L217.483 172.044L216.935 170.97L215.701 169.092L212.96 168.421H211.589L210.081 169.763Z" fill="white"/>
<path d="M244.487 167.348L243.253 168.555L245.035 170.97L246.68 171.91L249.422 173.117L251.889 171.91H253.945L256.275 173.117L258.057 171.91L264.226 170.97L267.516 167.348L269.16 165.738H274.095L274.918 163.054V160.102L276.562 157.822H279.852L282.868 156.882L285.472 155.272V151.918V148.966L283.827 146.685L280.949 148.966L277.385 150.845L276.562 148.966L274.095 146.685L272.176 148.027H270.531L268.475 148.966L267.516 150.845L269.16 153.796L266.693 155.272L267.516 156.346V157.822L268.475 160.102L266.693 161.981H263.129L260.799 163.054L258.057 164.396L256.275 168.555V169.36L255.59 170.97L253.945 169.36V168.019L250.518 165.738V167.348L247.914 168.555V167.348H246.68H244.487Z" fill="white"/>
<path d="M316.314 116.094L317 121.998H314.669H311.243L308.775 121.327L306.719 122.534V124.681L304.389 127.365L302.607 129.243H300.962H299.591L300.276 130.719L299.043 134.476L294.519 136.757L289.448 137.83L287.94 140.245V143.733L285.472 145.075H282.868L281.771 141.855L280.949 139.172V135.415L284.65 133.671V131.658L282.868 130.719V128.304V125.352L283.827 122.534L281.771 121.327L282.868 119.985H286.021L289.448 118.778H291.778L294.519 119.985H299.591L299.043 116.094V114.216L303.429 112.471V111.398L305.759 109.654L307.953 111.398H310.557L313.984 112.471L316.314 116.094Z" fill="white"/>
<path d="M290.544 101.201V99.0542L289.448 99.8593L286.706 103.482H284.513L283.827 106.434H282.868L281.771 107.239L279.304 108.312L278.344 110.191L276.7 111.666H273.547V113.008H274.506L276.151 114.216H277.933H279.304L279.715 111.398L282.868 109.654V108.312L283.827 107.239L286.021 105.36L287.666 104.421H289.448L289.996 102.677V101.201H290.544Z" fill="white"/>
<path d="M216.935 127.901L215.153 126.828L215.701 127.901L215.29 131.121L213.508 132.597L214.604 134.744H213.508L212 136.622L213.508 139.172L212 140.648L213.508 142.928H215.701L218.031 140.648L217.483 138.232L216.523 136.622L217.483 135.415V133.536L218.58 130.719V127.901H216.935Z" fill="white"/>
<path d="M240.786 110.191L242.842 114.216L240.786 113.008L239.141 112.203V110.191L237.359 109.654L236.674 108.312L234.343 107.239H232.424L230.779 106.434L228.449 105.763L229.683 104.421L227.49 102.677L228.449 100.53H229.683L231.602 101.872L233.521 103.482H232.424V105.36H233.521L235.303 105.763L235.714 104.421H236.674L239.141 107.239V108.312L240.786 110.191Z" fill="white"/>
<path d="M243.801 86.9788L245.309 85.7712L246.269 85.2345V82.5511L249.833 80.5385V79.1968L250.792 77.0501L249.833 75.8425L249.01 75.3058V71.549L248.599 68.9997L248.188 67.658L247.091 66.4505V64.1696L246.269 62.157L245.858 61.2178L245.309 61.6203L244.213 62.157L243.801 63.4987H242.842L240.786 64.1696L240.375 66.4505H239.141H236.674L235.714 67.2555L233.521 67.658L232.424 70.4756L230.779 71.549L230.368 73.4274L230.779 75.3058L231.602 75.8425L234.343 77.0501V78.1234V79.8677L233.521 81.3436L235.303 85.7712L231.602 86.4421V87.7838L232.424 88.723L234.343 89.2597L235.303 88.4547V89.2597L236.674 91.9431L237.359 90.0647L237.907 88.723L239.415 88.4547L240.786 88.723L241.745 87.7838L243.801 88.723V86.9788Z" fill="white"/>
<path d="M160.161 91.0746L158.387 89.8637H156.476L155.93 92.0164L159.069 95.6492L160.161 97.802V99.6857L164.256 101.569L163.437 103.049L164.256 106.144L169.306 107.759L168.624 109.642L169.306 110.719V114.621L172.173 117.177L171.627 118.119L172.992 120.541L178.315 121.348L177.769 118.119H182.683L185.003 119.733V118.657L188.825 119.733L189.371 118.119V115.697L189.917 112.064L191.691 110.719L189.371 109.642L191.691 107.759L188.825 104.799L186.641 103.049L183.911 102.377L177.769 100.762L173.811 103.049L171.627 101.569L173.811 97.2638L171.627 97.802L170.262 97.2638L171.627 95.6492L170.262 93.0928V89.3255L167.668 91.0746L168.624 95.6492L165.075 96.4565L164.256 94.9765L161.253 93.0928L159.615 93.9001L159.069 93.0928L160.161 91.0746Z" fill="white"/>
<path d="M195.513 59.1866L194.694 56.4956L196.878 55.8229L198.243 57.0338L199.062 59.1866L200.427 59.5902L201.792 61.8776L205.75 66.0486L207.115 68.3359V71.1614L208.344 74.3906L207.115 73.8524L206.569 72.6414L203.703 70.3541L201.792 72.6414L199.608 73.4487V69.5468V64.8376L195.513 66.9904V64.2994V59.1866Z" fill="white"/>
<path d="M193.329 47.3463L191.009 48.6918L188.143 47.8845L184.867 46.6736L184.184 43.8481L181.454 41.1571L183.092 41.8298L182.137 38.7352L182.546 36.3133L184.184 33.3533L187.324 34.6988L190.19 36.3133L191.009 33.3533L192.51 34.026H195.513L198.38 36.3133L201.792 40.4844L199.608 41.1571L199.062 43.8481L198.38 46.2699L196.059 46.6736L193.329 47.3463Z" fill="white"/>
<path d="M147.331 29.9896L150.743 28.9132L149.105 25.8186V20.5712L145.966 18.2838L143.236 14.3819L141.461 13.5746L140.233 16.4002L134.364 14.3819L131.634 16.4002V21.3785L134.364 23.2621L135.182 28.9132L140.779 27.8368H145.42L147.331 29.9896Z" fill="white"/>
<path d="M141.461 35.237H139.141L137.23 36.3133L138.322 39.9462H144.191L143.236 37.9279L141.461 35.237Z" fill="white"/>
<path d="M142.826 43.579L138.322 41.1571H135.865L133.818 43.579H131.224V46.539L136.684 47.8845L141.461 45.7317L142.826 43.579Z" fill="white"/>
<path d="M115.664 43.0408H120.305L118.394 36.8515H116.073L115.254 35.5061L113.343 35.237L111.978 32.8151L109.521 33.7569L110.204 35.237H108.293V37.1206L114.162 43.0408H114.845H115.664Z" fill="white"/>
<path d="M107.338 43.0408L105.427 40.6189L104.608 39.9462H102.151L101.195 41.1571L103.516 43.579L102.151 47.3463V49.7682L106.246 54.881H110.204V53.5356L112.388 50.3064L114.845 47.3463L113.616 44.9245L112.388 45.5972L111.159 44.5208L111.978 43.0408H107.338Z" fill="white"/>
<path d="M79.3561 24.0694V22.5894H80.994L84.6794 21.3785L92.7326 16.9384V15.862L96.2814 16.4002L99.4208 14.3819V11.9601H96.2814V9L103.516 11.9601L104.335 13.8437L105.427 16.4002H110.204L111.159 19.3602L117.302 20.5712L122.352 19.3602V22.5894L119.349 24.4731H115.664H110.886L107.338 25.2804L105.427 29.9896L102.151 31.066L103.516 32.8151L101.195 36.8515L97.6464 40.6189H94.3705L87.4093 44.9245H83.0414L82.2225 46.539L75.6707 49.7682L76.4897 51.6519L71.5758 56.092H68.1635L66.2525 53.5356L68.1635 50.9791L66.2525 46.539L73.4868 43.579V39.9462L79.3561 37.9279L80.3115 34.5642L87.4093 32.8151L80.994 31.7387V28.9132L82.2225 25.8186L80.994 24.0694H79.3561Z" fill="white"/>
<path d="M71.5758 73.0451L76.4897 74.9288L80.5845 76.2743L81.4035 78.427L83.8604 79.638L83.0414 81.6562L82.2225 84.7508V86.2309H80.5845V88.7873L72.1218 94.8419L69.6649 96.322L65.2971 93.2274L64.4781 87.5763L62.8402 87.0381L60.6562 84.0781L62.8402 82.598H64.4781L70.3474 80.1762L68.9824 78.427L66.935 77.7543L70.3474 74.9288L71.5758 73.0451Z" fill="white"/>
<path d="M83.8604 90.2673L85.0888 88.7873L84.1334 88.5182L87.4093 85.4236L89.3202 86.2309L90.8216 87.5763L93.142 86.2309L94.234 84.7508L96.0084 84.0781L98.6018 84.7508L96.6909 87.5763L93.688 88.7873L91.5041 90.8055L88.3647 91.6128L87.4093 94.1692L83.5874 93.4965L82.2225 90.2673H83.8604Z" fill="white"/>
<path d="M79.902 101.435L77.5816 100.358L76.4897 98.7439L73.8963 100.358V102.646H72.1218L69.6649 105.606H66.935L64.4781 107.355L65.2971 108.431L65.9796 111.661L63.5226 113.679L64.4781 115.832L67.754 118.253H71.5758V116.37H69.6649L71.5758 114.351L70.3474 113.679L72.1218 112.199L74.9882 112.737V111.257L77.5816 107.355V104.933L79.902 103.991V102.646V101.435Z" fill="white"/>
<path d="M125.355 115.159L120.305 113.41V109.911L126.72 110.45L125.355 112.602V115.159Z" fill="white"/>
</svg>
