<svg width="317" height="181" viewBox="0 0 317 181" fill="none" xmlns="http://www.w3.org/2000/svg">
<path d="M27.8965 58.8653V56.4375L24.8881 57.6514L21.1959 58.8653L17.5037 60.3489L15.9995 64.665H13.538H9.43559L6.83739 68.5764L9.43559 75.59L13.538 76.5342V82.0641H19.6917L29.264 65.8789L26.6658 62.7767L24.8881 60.3489V58.8653H27.8965Z" fill="white"/>
<path d="M9.43559 82.0641H6.83739L4.92292 84.7617L3.28195 85.7058V91.2358L0.820486 92.5846L0 94.2031L1.91447 95.6867V96.7658L4.10243 97.9796H6.83739L8.34161 95.6867L6.83739 92.0451V90.5614V89.2126V88.1336L10.8031 84.6268L9.43559 83.278V82.0641Z" fill="white"/>
<path d="M11.4868 99.733L6.83739 101.486V103.375H8.34161V104.858L9.43559 107.016L10.8031 109.579L12.0338 110.119V112.816L12.991 118.076L15.3157 118.616L18.1874 120.369V121.718L19.6917 123.876H21.1959L22.5634 123.202V122.123L21.1959 120.369L19.6917 118.076L18.4609 115.918V112.816L16.82 111.063L14.7688 110.119V108.905L15.9995 108.095V106.072H14.7688H13.538L14.085 103.375V100.947L13.538 99.733H11.4868Z" fill="white"/>
<path d="M33.7767 129.406L32.546 130.35L33.093 131.294L33.7767 132.643L35.6912 133.587V135.071L38.5629 137.768V140.061L41.4346 140.871H42.2551L42.6653 139.387L44.0328 138.038L45.1268 136.554L46.7677 137.364H48.6822L51.2804 138.847L53.4684 140.061H55.3828L59.7588 142.489L60.8527 147.614L63.3142 149.098V152.74L65.0919 153.414L64.6817 154.493L65.5022 156.651L67.2799 157.326L70.2883 156.651L72.3396 158.135L73.16 157.865L74.3908 158.674L74.801 160.158L76.989 162.181L77.6727 165.148L75.6215 167.711L78.6299 171.488L79.9974 171.892L81.7751 174.05L83.1426 174.86L82.7324 175.804V176.883H80.9547V177.692H82.4589V179.311L83.1426 179.85L85.4673 180.39L85.6041 180.12L86.1511 179.85L87.9288 180.39L88.339 179.85V178.232L87.9288 176.208L87.6553 174.05L86.5613 173.511L86.1511 171.892L85.4673 169.465L86.5613 167.306L86.1511 166.362V164.474L84.6468 163.53L84.0999 162.586V160.158L80.9547 157.326L79.4504 156.381L78.6299 154.493L77.2625 153.414H78.6299L77.6727 152.74L76.5787 150.717L76.0317 149.098H74.801L73.9805 147.614L73.16 147.075L72.0661 146.67H70.1516V147.614H68.9209L67.8269 148.019V147.075L66.8696 145.996V145.456H65.5022L64.2714 142.894L62.4937 142.489L60.8527 140.871L59.7588 140.466L58.1178 139.387H57.1606L56.6136 138.847H55.3828L54.6991 138.443L56.0666 137.364L54.1521 136.554L53.4684 137.364H52.2376L51.2804 136.15L47.725 135.745L44.0328 134.127V132.643L45.1268 131.294L44.0328 129.406L41.8448 128.462L40.7508 130.35L38.5629 129.406H35.6912H33.7767Z" fill="white"/>
<path d="M89.0435 152.444L89.4547 149.895H91.3738L92.7445 151.371L94.5265 152.444L96.1714 152.847L97.268 153.92V155.664L98.0905 157.409V159.019V162.239L96.1714 163.715L93.4299 164.251L92.3333 163.044L90.4143 161.702L89.0435 158.616L88.084 155.128L88.6323 153.518L89.0435 152.444Z" fill="white"/>
<path d="M128.521 161.702L127.562 165.056L126.328 164.251L124.82 165.056L122.901 164.251L120.434 163.715L119.474 159.824L118.926 157.945V155.664H117.418L116.184 154.457L117.418 152.444H116.184V151.371L114.951 150.7L113.717 147.614L113.306 145.467L114.265 144.126L112.346 143.052V141.174L113.306 137.149L116.184 136.612H119.474H122.216L123.861 137.819L125.368 139.832V143.052L126.328 148.016L129.344 149.895L128.521 154.457V157.945V159.019V161.702Z" fill="white"/>
<path d="M210.081 160.763L210.629 163.58L212 165.861L213.508 166.264L215.016 167.203L215.701 166.264V165.056L217.483 163.044L216.935 161.97L215.701 160.092L212.96 159.421H211.589L210.081 160.763Z" fill="white"/>
<path d="M244.487 158.348L243.253 159.555L245.035 161.97L246.68 162.91L249.422 164.117L251.889 162.91H253.945L256.275 164.117L258.057 162.91L264.226 161.97L267.516 158.348L269.16 156.738H274.095L274.918 154.054V151.102L276.562 148.822H279.852L282.868 147.882L285.472 146.272V142.918V139.966L283.827 137.685L280.949 139.966L277.385 141.845L276.562 139.966L274.095 137.685L272.176 139.027H270.531L268.475 139.966L267.516 141.845L269.16 144.796L266.693 146.272L267.516 147.346V148.822L268.475 151.102L266.693 152.981H263.129L260.799 154.054L258.057 155.396L256.275 159.555V160.36L255.59 161.97L253.945 160.36V159.019L250.518 156.738V158.348L247.914 159.555V158.348H246.68H244.487Z" fill="white"/>
<path d="M316.314 107.094L317 112.998H314.669H311.243L308.775 112.327L306.719 113.534V115.681L304.389 118.365L302.607 120.243H300.962H299.591L300.276 121.719L299.043 125.476L294.519 127.757L289.448 128.83L287.94 131.245V134.733L285.472 136.075H282.868L281.771 132.855L280.949 130.172V126.415L284.65 124.671V122.658L282.868 121.719V119.304V116.352L283.827 113.534L281.771 112.327L282.868 110.985H286.021L289.448 109.778H291.778L294.519 110.985H299.591L299.043 107.094V105.216L303.429 103.471V102.398L305.759 100.654L307.953 102.398H310.557L313.984 103.471L316.314 107.094Z" fill="white"/>
<path d="M290.544 92.201V90.0542L289.448 90.8593L286.706 94.4819H284.513L283.827 97.4337H282.868L281.771 98.2387L279.304 99.3121L278.344 101.191L276.7 102.666H273.547V104.008H274.506L276.151 105.216H277.933H279.304L279.715 102.398L282.868 100.654V99.3121L283.827 98.2387L286.021 96.3603L287.666 95.4211H289.448L289.996 93.6769V92.201H290.544Z" fill="white"/>
<path d="M216.935 118.901L215.153 117.828L215.701 118.901L215.29 122.121L213.508 123.597L214.604 125.744H213.508L212 127.622L213.508 130.172L212 131.648L213.508 133.928H215.701L218.031 131.648L217.483 129.232L216.523 127.622L217.483 126.415V124.536L218.58 121.719V118.901H216.935Z" fill="white"/>
<path d="M240.786 101.191L242.842 105.216L240.786 104.008L239.141 103.203V101.191L237.359 100.654L236.674 99.3121L234.343 98.2387H232.424L230.779 97.4337L228.449 96.7628L229.683 95.4211L227.49 93.6769L228.449 91.5301H229.683L231.602 92.8719L233.521 94.4819H232.424V96.3603H233.521L235.303 96.7628L235.714 95.4211H236.674L239.141 98.2387V99.3121L240.786 101.191Z" fill="white"/>
<path d="M243.801 77.9788L245.309 76.7712L246.269 76.2345V73.5511L249.833 71.5385V70.1968L250.792 68.0501L249.833 66.8425L249.01 66.3058V62.549L248.599 59.9997L248.188 58.658L247.091 57.4505V55.1696L246.269 53.157L245.858 52.2178L245.309 52.6203L244.213 53.157L243.801 54.4987H242.842L240.786 55.1696L240.375 57.4505H239.141H236.674L235.714 58.2555L233.521 58.658L232.424 61.4756L230.779 62.549L230.368 64.4274L230.779 66.3058L231.602 66.8425L234.343 68.0501V69.1234V70.8677L233.521 72.3436L235.303 76.7712L231.602 77.4421V78.7838L232.424 79.723L234.343 80.2597L235.303 79.4547V80.2597L236.674 82.9431L237.359 81.0647L237.907 79.723L239.415 79.4547L240.786 79.723L241.745 78.7838L243.801 79.723V77.9788Z" fill="white"/>
<path d="M160.161 82.0746L158.387 80.8637H156.476L155.93 83.0164L159.069 86.6492L160.161 88.802V90.6857L164.256 92.5694L163.437 94.0494L164.256 97.144L169.306 98.7586L168.624 100.642L169.306 101.719V105.621L172.173 108.177L171.627 109.119L172.992 111.541L178.315 112.348L177.769 109.119H182.683L185.003 110.733V109.657L188.825 110.733L189.371 109.119V106.697L189.917 103.064L191.691 101.719L189.371 100.642L191.691 98.7586L188.825 95.7985L186.641 94.0494L183.911 93.3767L177.769 91.7621L173.811 94.0494L171.627 92.5694L173.811 88.2638L171.627 88.802L170.262 88.2638L171.627 86.6492L170.262 84.0928V80.3255L167.668 82.0746L168.624 86.6492L165.075 87.4565L164.256 85.9765L161.253 84.0928L159.615 84.9001L159.069 84.0928L160.161 82.0746Z" fill="white"/>
<path d="M195.513 50.1866L194.694 47.4956L196.878 46.8229L198.243 48.0338L199.062 50.1866L200.427 50.5902L201.792 52.8776L205.75 57.0486L207.115 59.3359V62.1614L208.344 65.3906L207.115 64.8524L206.569 63.6414L203.703 61.3541L201.792 63.6414L199.608 64.4487V60.5468V55.8376L195.513 57.9904V55.2994V50.1866Z" fill="white"/>
<path d="M193.329 38.3463L191.009 39.6918L188.143 38.8845L184.867 37.6736L184.184 34.8481L181.454 32.1571L183.092 32.8298L182.137 29.7352L182.546 27.3133L184.184 24.3533L187.324 25.6988L190.19 27.3133L191.009 24.3533L192.51 25.026H195.513L198.38 27.3133L201.792 31.4844L199.608 32.1571L199.062 34.8481L198.38 37.2699L196.059 37.6736L193.329 38.3463Z" fill="white"/>
<path d="M147.331 20.9896L150.743 19.9132L149.105 16.8186V11.5712L145.966 9.28385L143.236 5.38194L141.461 4.57465L140.233 7.40017L134.364 5.38194L131.634 7.40017V12.3785L134.364 14.2621L135.182 19.9132L140.779 18.8368H145.42L147.331 20.9896Z" fill="white"/>
<path d="M141.461 26.237H139.141L137.23 27.3133L138.322 30.9462H144.191L143.236 28.9279L141.461 26.237Z" fill="white"/>
<path d="M142.826 34.579L138.322 32.1571H135.865L133.818 34.579H131.224V37.539L136.684 38.8845L141.461 36.7317L142.826 34.579Z" fill="white"/>
<path d="M115.664 34.0408H120.305L118.394 27.8515H116.073L115.254 26.5061L113.343 26.237L111.978 23.8151L109.521 24.7569L110.204 26.237H108.293V28.1206L114.162 34.0408H114.845H115.664Z" fill="white"/>
<path d="M107.338 34.0408L105.427 31.6189L104.608 30.9462H102.151L101.195 32.1571L103.516 34.579L102.151 38.3463V40.7682L106.246 45.881H110.204V44.5356L112.388 41.3064L114.845 38.3463L113.616 35.9245L112.388 36.5972L111.159 35.5208L111.978 34.0408H107.338Z" fill="white"/>
<path d="M79.3561 15.0694V13.5894H80.994L84.6794 12.3785L92.7326 7.93836V6.86197L96.2814 7.40017L99.4208 5.38194V2.96007H96.2814V0L103.516 2.96007L104.335 4.84375L105.427 7.40017H110.204L111.159 10.3602L117.302 11.5712L122.352 10.3602V13.5894L119.349 15.4731H115.664H110.886L107.338 16.2804L105.427 20.9896L102.151 22.066L103.516 23.8151L101.195 27.8515L97.6464 31.6189H94.3705L87.4093 35.9245H83.0414L82.2225 37.539L75.6707 40.7682L76.4897 42.6519L71.5758 47.092H68.1635L66.2525 44.5356L68.1635 41.9791L66.2525 37.539L73.4868 34.579V30.9462L79.3561 28.9279L80.3115 25.5642L87.4093 23.8151L80.994 22.7387V19.9132L82.2225 16.8186L80.994 15.0694H79.3561Z" fill="white"/>
<path d="M71.5758 64.0451L76.4897 65.9288L80.5845 67.2743L81.4035 69.427L83.8604 70.638L83.0414 72.6562L82.2225 75.7508V77.2309H80.5845V79.7873L72.1218 85.8419L69.6649 87.322L65.2971 84.2274L64.4781 78.5763L62.8402 78.0381L60.6562 75.0781L62.8402 73.598H64.4781L70.3474 71.1762L68.9824 69.427L66.935 68.7543L70.3474 65.9288L71.5758 64.0451Z" fill="white"/>
<path d="M83.8604 81.2673L85.0888 79.7873L84.1334 79.5182L87.4093 76.4236L89.3202 77.2309L90.8216 78.5763L93.142 77.2309L94.234 75.7508L96.0084 75.0781L98.6018 75.7508L96.6909 78.5763L93.688 79.7873L91.5041 81.8055L88.3647 82.6128L87.4093 85.1692L83.5874 84.4965L82.2225 81.2673H83.8604Z" fill="white"/>
<path d="M79.902 92.4348L77.5816 91.3584L76.4897 89.7439L73.8963 91.3584V93.6458H72.1218L69.6649 96.6058H66.935L64.4781 98.355L65.2971 99.4314L65.9796 102.661L63.5226 104.679L64.4781 106.832L67.754 109.253H71.5758V107.37H69.6649L71.5758 105.351L70.3474 104.679L72.1218 103.199L74.9882 103.737V102.257L77.5816 98.355V95.9331L79.902 94.9912V93.6458V92.4348Z" fill="white"/>
<path d="M125.355 106.159L120.305 104.41V100.911L126.72 101.45L125.355 103.602V106.159Z" fill="white"/>
</svg>
